solid CATIA STL
  facet normal  9.345250e-01  3.544187e-01 -3.241098e-02
    outer loop
      vertex  2.124259e+01  1.005000e+01  1.300000e+01
      vertex  2.281713e+01  5.623918e+00  1.000000e+01
      vertex  2.080822e+01  1.092099e+01  1.000000e+01
    endloop
  endfacet
  facet normal -2.191557e-01  9.756808e-01  4.216476e-03
    outer loop
      vertex -7.918074e+00  2.212587e+01  2.400000e+01
      vertex -2.304877e+00  2.338670e+01  2.400000e+01
      vertex -2.832612e+00  2.332866e+01  1.000000e+01
    endloop
  endfacet
  facet normal  0.000000e+00  9.999915e-01 -4.145450e-03
    outer loop
      vertex  2.832612e+00  2.332866e+01  1.000000e+01
      vertex -2.832612e+00  2.332866e+01  1.000000e+01
      vertex -2.304877e+00  2.338670e+01  2.400000e+01
    endloop
  endfacet
  facet normal  2.447275e-02  9.996889e-01  4.836410e-03
    outer loop
      vertex -2.304877e+00  2.338670e+01  2.400000e+01
      vertex  3.446456e+00  2.324590e+01  2.400000e+01
      vertex  2.832612e+00  2.332866e+01  1.000000e+01
    endloop
  endfacet
  facet normal  2.393131e-01  9.709308e-01 -4.753484e-03
    outer loop
      vertex  8.333215e+00  2.197288e+01  1.000000e+01
      vertex  2.832612e+00  2.332866e+01  1.000000e+01
      vertex  3.446456e+00  2.324590e+01  2.400000e+01
    endloop
  endfacet
  facet normal  2.666327e-01  9.637829e-01  5.432489e-03
    outer loop
      vertex  3.446456e+00  2.324590e+01  2.400000e+01
      vertex  8.991236e+00  2.171193e+01  2.400000e+01
      vertex  8.333215e+00  2.197288e+01  1.000000e+01
    endloop
  endfacet
  facet normal  4.647166e-01  8.854434e-01 -5.337974e-03
    outer loop
      vertex  1.334952e+01  1.934012e+01  1.000000e+01
      vertex  8.333215e+00  2.197288e+01  1.000000e+01
      vertex  8.991236e+00  2.171193e+01  2.400000e+01
    endloop
  endfacet
  facet normal  4.928116e-01  8.701153e-01  6.004993e-03
    outer loop
      vertex  8.991236e+00  2.171193e+01  2.400000e+01
      vertex  1.399715e+01  1.887670e+01  2.400000e+01
      vertex  1.334952e+01  1.934012e+01  1.000000e+01
    endloop
  endfacet
  facet normal  6.631111e-01  7.484977e-01 -5.898610e-03
    outer loop
      vertex  1.759000e+01  1.558338e+01  1.000000e+01
      vertex  1.334952e+01  1.934012e+01  1.000000e+01
      vertex  1.399715e+01  1.887670e+01  2.400000e+01
    endloop
  endfacet
  facet normal  6.894535e-01  7.243003e-01  6.553854e-03
    outer loop
      vertex  1.399715e+01  1.887670e+01  2.400000e+01
      vertex  1.816418e+01  1.491015e+01  2.400000e+01
      vertex  1.759000e+01  1.558338e+01  1.000000e+01
    endloop
  endfacet
  facet normal  8.447946e-01  5.350908e-01  -0.000000e+00
    outer loop
      vertex  2.124259e+01  1.005000e+01  2.400000e+01
      vertex  2.124259e+01  1.005000e+01  1.300000e+01
      vertex  1.816418e+01  1.491015e+01  2.400000e+01
    endloop
  endfacet
  facet normal  8.648559e-01  5.016052e-01  2.040929e-02
    outer loop
      vertex  1.816418e+01  1.491015e+01  2.400000e+01
      vertex  2.124259e+01  1.005000e+01  1.300000e+01
      vertex  2.080822e+01  1.092099e+01  1.000000e+01
    endloop
  endfacet
  facet normal  8.229668e-01  5.680530e-01 -6.435501e-03
    outer loop
      vertex  1.816418e+01  1.491015e+01  2.400000e+01
      vertex  2.080822e+01  1.092099e+01  1.000000e+01
      vertex  1.759000e+01  1.558338e+01  1.000000e+01
    endloop
  endfacet
  facet normal -9.927089e-01  1.205366e-01  0.000000e+00
    outer loop
      vertex -2.350000e+01 -7.558177e-15  1.000000e+01
      vertex -2.350000e+01 -7.558177e-15  2.400000e+01
      vertex -2.281713e+01  5.623918e+00  1.000000e+01
    endloop
  endfacet
  facet normal -9.924798e-01  1.224056e-01  7.619415e-04
    outer loop
      vertex -2.281713e+01  5.623918e+00  1.000000e+01
      vertex -2.350000e+01 -7.558177e-15  2.400000e+01
      vertex -2.279579e+01  5.709795e+00  2.400000e+01
    endloop
  endfacet
  facet normal -9.350160e-01  3.546049e-01 -7.499657e-04
    outer loop
      vertex -2.281713e+01  5.623918e+00  1.000000e+01
      vertex -2.279579e+01  5.709795e+00  2.400000e+01
      vertex -2.080822e+01  1.092099e+01  1.000000e+01
    endloop
  endfacet
  facet normal -9.329974e-01  3.598799e-01  1.500102e-03
    outer loop
      vertex -2.080822e+01  1.092099e+01  1.000000e+01
      vertex -2.279579e+01  5.709795e+00  2.400000e+01
      vertex -2.072538e+01  1.107739e+01  2.400000e+01
    endloop
  endfacet
  facet normal -8.229830e-01  5.680642e-01 -1.476437e-03
    outer loop
      vertex -2.080822e+01  1.092099e+01  1.000000e+01
      vertex -2.072538e+01  1.107739e+01  2.400000e+01
      vertex -1.759000e+01  1.558338e+01  1.000000e+01
    endloop
  endfacet
  facet normal -8.175981e-01  5.757852e-01  2.214603e-03
    outer loop
      vertex -1.759000e+01  1.558338e+01  1.000000e+01
      vertex -2.072538e+01  1.107739e+01  2.400000e+01
      vertex -1.741285e+01  1.578109e+01  2.400000e+01
    endloop
  endfacet
  facet normal -6.631210e-01  7.485089e-01 -2.179272e-03
    outer loop
      vertex -1.759000e+01  1.558338e+01  1.000000e+01
      vertex -1.741285e+01  1.578109e+01  2.400000e+01
      vertex -1.334952e+01  1.934012e+01  1.000000e+01
    endloop
  endfacet
  facet normal -6.531978e-01  7.571817e-01  2.905617e-03
    outer loop
      vertex -1.334952e+01  1.934012e+01  1.000000e+01
      vertex -1.741285e+01  1.578109e+01  2.400000e+01
      vertex -1.305672e+01  1.953899e+01  2.400000e+01
    endloop
  endfacet
  facet normal -4.647213e-01  8.854524e-01 -2.858280e-03
    outer loop
      vertex -1.334952e+01  1.934012e+01  1.000000e+01
      vertex -1.305672e+01  1.953899e+01  2.400000e+01
      vertex -8.333215e+00  2.197288e+01  1.000000e+01
    endloop
  endfacet
  facet normal -4.496509e-01  8.931972e-01  3.572821e-03
    outer loop
      vertex -8.333215e+00  2.197288e+01  1.000000e+01
      vertex -1.305672e+01  1.953899e+01  2.400000e+01
      vertex -7.918074e+00  2.212587e+01  2.400000e+01
    endloop
  endfacet
  facet normal -2.393144e-01  9.709359e-01 -3.513774e-03
    outer loop
      vertex -8.333215e+00  2.197288e+01  1.000000e+01
      vertex -7.918074e+00  2.212587e+01  2.400000e+01
      vertex -2.832612e+00  2.332866e+01  1.000000e+01
    endloop
  endfacet
  facet normal  9.939038e-01  1.102508e-01  -0.000000e+00
    outer loop
      vertex  2.350000e+01  0.000000e+00  1.300000e+01
      vertex  2.350000e+01  0.000000e+00  1.000000e+01
      vertex  2.292870e+01  5.150204e+00  1.300000e+01
    endloop
  endfacet
  facet normal  9.925501e-01  1.205174e-01 -1.788281e-02
    outer loop
      vertex  2.292870e+01  5.150204e+00  1.300000e+01
      vertex  2.350000e+01  0.000000e+00  1.000000e+01
      vertex  2.281713e+01  5.623918e+00  1.000000e+01
    endloop
  endfacet
  facet normal  9.454548e-01  3.253498e-01  1.621266e-02
    outer loop
      vertex  2.292870e+01  5.150204e+00  1.300000e+01
      vertex  2.281713e+01  5.623918e+00  1.000000e+01
      vertex  2.124259e+01  1.005000e+01  1.300000e+01
    endloop
  endfacet
  facet normal  8.447734e-01 -5.350774e-01  7.078946e-03
    outer loop
      vertex  2.124259e+01 -1.005000e+01  2.400000e+01
      vertex  1.816418e+01 -1.491015e+01  2.400000e+01
      vertex  2.080822e+01 -1.092099e+01  1.000000e+01
    endloop
  endfacet
  facet normal  8.229668e-01 -5.680530e-01 -6.435496e-03
    outer loop
      vertex  2.080822e+01 -1.092099e+01  1.000000e+01
      vertex  1.816418e+01 -1.491015e+01  2.400000e+01
      vertex  1.759000e+01 -1.558338e+01  1.000000e+01
    endloop
  endfacet
  facet normal  6.894535e-01 -7.243003e-01  6.553854e-03
    outer loop
      vertex  1.759000e+01 -1.558338e+01  1.000000e+01
      vertex  1.816418e+01 -1.491015e+01  2.400000e+01
      vertex  1.399715e+01 -1.887670e+01  2.400000e+01
    endloop
  endfacet
  facet normal  6.631112e-01 -7.484978e-01 -5.898610e-03
    outer loop
      vertex  1.759000e+01 -1.558338e+01  1.000000e+01
      vertex  1.399715e+01 -1.887670e+01  2.400000e+01
      vertex  1.334952e+01 -1.934012e+01  1.000000e+01
    endloop
  endfacet
  facet normal  4.928116e-01 -8.701153e-01  6.004993e-03
    outer loop
      vertex  1.334952e+01 -1.934012e+01  1.000000e+01
      vertex  1.399715e+01 -1.887670e+01  2.400000e+01
      vertex  8.991236e+00 -2.171193e+01  2.400000e+01
    endloop
  endfacet
  facet normal  4.647166e-01 -8.854434e-01 -5.337974e-03
    outer loop
      vertex  1.334952e+01 -1.934012e+01  1.000000e+01
      vertex  8.991236e+00 -2.171193e+01  2.400000e+01
      vertex  8.333215e+00 -2.197288e+01  1.000000e+01
    endloop
  endfacet
  facet normal  2.666327e-01 -9.637829e-01  5.432489e-03
    outer loop
      vertex  8.333215e+00 -2.197288e+01  1.000000e+01
      vertex  8.991236e+00 -2.171193e+01  2.400000e+01
      vertex  3.446456e+00 -2.324590e+01  2.400000e+01
    endloop
  endfacet
  facet normal  2.393131e-01 -9.709308e-01 -4.753484e-03
    outer loop
      vertex  8.333215e+00 -2.197288e+01  1.000000e+01
      vertex  3.446456e+00 -2.324590e+01  2.400000e+01
      vertex  2.832612e+00 -2.332866e+01  1.000000e+01
    endloop
  endfacet
  facet normal  2.447275e-02 -9.996889e-01  4.836410e-03
    outer loop
      vertex  2.832612e+00 -2.332866e+01  1.000000e+01
      vertex  3.446456e+00 -2.324590e+01  2.400000e+01
      vertex -2.304877e+00 -2.338670e+01  2.400000e+01
    endloop
  endfacet
  facet normal  0.000000e+00 -9.999915e-01 -4.145450e-03
    outer loop
      vertex  2.832612e+00 -2.332866e+01  1.000000e+01
      vertex -2.304877e+00 -2.338670e+01  2.400000e+01
      vertex -2.832612e+00 -2.332866e+01  1.000000e+01
    endloop
  endfacet
  facet normal -2.191557e-01 -9.756808e-01  4.216476e-03
    outer loop
      vertex -2.832612e+00 -2.332866e+01  1.000000e+01
      vertex -2.304877e+00 -2.338670e+01  2.400000e+01
      vertex -7.918074e+00 -2.212587e+01  2.400000e+01
    endloop
  endfacet
  facet normal  8.948900e-01 -4.462869e-01  0.000000e+00
    outer loop
      vertex  2.124259e+01 -1.005000e+01  1.300000e+01
      vertex  2.124259e+01 -1.005000e+01  2.400000e+01
      vertex  2.080822e+01 -1.092099e+01  1.000000e+01
    endloop
  endfacet
  facet normal  9.345250e-01 -3.544187e-01 -3.241097e-02
    outer loop
      vertex  2.124259e+01 -1.005000e+01  1.300000e+01
      vertex  2.080822e+01 -1.092099e+01  1.000000e+01
      vertex  2.281713e+01 -5.623918e+00  1.000000e+01
    endloop
  endfacet
  facet normal  9.454548e-01 -3.253498e-01  1.621266e-02
    outer loop
      vertex  2.124259e+01 -1.005000e+01  1.300000e+01
      vertex  2.281713e+01 -5.623918e+00  1.000000e+01
      vertex  2.292870e+01 -5.150204e+00  1.300000e+01
    endloop
  endfacet
  facet normal  9.937138e-01 -1.102297e-01 -1.955056e-02
    outer loop
      vertex  2.292870e+01 -5.150204e+00  1.300000e+01
      vertex  2.281713e+01 -5.623918e+00  1.000000e+01
      vertex  2.350000e+01  0.000000e+00  1.300000e+01
    endloop
  endfacet
  facet normal  9.927088e-01 -1.205366e-01  0.000000e+00
    outer loop
      vertex  2.350000e+01  0.000000e+00  1.300000e+01
      vertex  2.281713e+01 -5.623918e+00  1.000000e+01
      vertex  2.350000e+01  0.000000e+00  1.000000e+01
    endloop
  endfacet
  facet normal -9.924802e-01 -1.224056e-01  0.000000e+00
    outer loop
      vertex -2.350000e+01 -7.558177e-15  2.400000e+01
      vertex -2.350000e+01 -7.558177e-15  1.000000e+01
      vertex -2.279579e+01 -5.709795e+00  2.400000e+01
    endloop
  endfacet
  facet normal -9.927086e-01 -1.205366e-01  7.737546e-04
    outer loop
      vertex -2.279579e+01 -5.709795e+00  2.400000e+01
      vertex -2.350000e+01 -7.558177e-15  1.000000e+01
      vertex -2.281713e+01 -5.623918e+00  1.000000e+01
    endloop
  endfacet
  facet normal -9.329982e-01 -3.598801e-01 -7.853999e-04
    outer loop
      vertex -2.279579e+01 -5.709795e+00  2.400000e+01
      vertex -2.281713e+01 -5.623918e+00  1.000000e+01
      vertex -2.072538e+01 -1.107739e+01  2.400000e+01
    endloop
  endfacet
  facet normal -9.350151e-01 -3.546046e-01  1.570970e-03
    outer loop
      vertex -2.072538e+01 -1.107739e+01  2.400000e+01
      vertex -2.281713e+01 -5.623918e+00  1.000000e+01
      vertex -2.080822e+01 -1.092099e+01  1.000000e+01
    endloop
  endfacet
  facet normal -8.175990e-01 -5.757858e-01 -1.594550e-03
    outer loop
      vertex -2.072538e+01 -1.107739e+01  2.400000e+01
      vertex -2.080822e+01 -1.092099e+01  1.000000e+01
      vertex -1.741285e+01 -1.578109e+01  2.400000e+01
    endloop
  endfacet
  facet normal -8.229815e-01 -5.680631e-01  2.391772e-03
    outer loop
      vertex -1.741285e+01 -1.578109e+01  2.400000e+01
      vertex -2.080822e+01 -1.092099e+01  1.000000e+01
      vertex -1.759000e+01 -1.558338e+01  1.000000e+01
    endloop
  endfacet
  facet normal -6.531986e-01 -7.571828e-01 -2.427318e-03
    outer loop
      vertex -1.741285e+01 -1.578109e+01  2.400000e+01
      vertex -1.759000e+01 -1.558338e+01  1.000000e+01
      vertex -1.305672e+01 -1.953899e+01  2.400000e+01
    endloop
  endfacet
  facet normal -6.631191e-01 -7.485069e-01  3.236341e-03
    outer loop
      vertex -1.305672e+01 -1.953899e+01  2.400000e+01
      vertex -1.759000e+01 -1.558338e+01  1.000000e+01
      vertex -1.334952e+01 -1.934012e+01  1.000000e+01
    endloop
  endfacet
  facet normal -4.496513e-01 -8.931982e-01 -3.283483e-03
    outer loop
      vertex -1.305672e+01 -1.953899e+01  2.400000e+01
      vertex -1.334952e+01 -1.934012e+01  1.000000e+01
      vertex -7.918074e+00 -2.212587e+01  2.400000e+01
    endloop
  endfacet
  facet normal -4.647192e-01 -8.854486e-01  4.104319e-03
    outer loop
      vertex -7.918074e+00 -2.212587e+01  2.400000e+01
      vertex -1.334952e+01 -1.934012e+01  1.000000e+01
      vertex -8.333215e+00 -2.197288e+01  1.000000e+01
    endloop
  endfacet
  facet normal -2.393144e-01 -9.709359e-01 -3.513774e-03
    outer loop
      vertex -7.918074e+00 -2.212587e+01  2.400000e+01
      vertex -8.333215e+00 -2.197288e+01  1.000000e+01
      vertex -2.832612e+00 -2.332866e+01  1.000000e+01
    endloop
  endfacet
  facet normal  -0.000000e+00  0.000000e+00  1.000000e+00
    outer loop
      vertex  2.124259e+01 -1.005000e+01  2.400000e+01
      vertex  1.849594e+01 -1.005000e+01  2.400000e+01
      vertex  1.816418e+01 -1.491015e+01  2.400000e+01
    endloop
  endfacet
  facet normal  0.000000e+00  -0.000000e+00  1.000000e+00
    outer loop
      vertex  1.816418e+01 -1.491015e+01  2.400000e+01
      vertex  1.849594e+01 -1.005000e+01  2.400000e+01
      vertex  1.522704e+01 -1.453409e+01  2.400000e+01
    endloop
  endfacet
  facet normal  0.000000e+00  0.000000e+00  1.000000e+00
    outer loop
      vertex  1.816418e+01 -1.491015e+01  2.400000e+01
      vertex  1.522704e+01 -1.453409e+01  2.400000e+01
      vertex  1.399715e+01 -1.887670e+01  2.400000e+01
    endloop
  endfacet
  facet normal  0.000000e+00  -0.000000e+00  1.000000e+00
    outer loop
      vertex  1.399715e+01 -1.887670e+01  2.400000e+01
      vertex  1.522704e+01 -1.453409e+01  2.400000e+01
      vertex  1.089995e+01 -1.800816e+01  2.400000e+01
    endloop
  endfacet
  facet normal  0.000000e+00  0.000000e+00  1.000000e+00
    outer loop
      vertex  1.399715e+01 -1.887670e+01  2.400000e+01
      vertex  1.089995e+01 -1.800816e+01  2.400000e+01
      vertex  8.991236e+00 -2.171193e+01  2.400000e+01
    endloop
  endfacet
  facet normal  0.000000e+00  -0.000000e+00  1.000000e+00
    outer loop
      vertex  8.991236e+00 -2.171193e+01  2.400000e+01
      vertex  1.089995e+01 -1.800816e+01  2.400000e+01
      vertex  5.815376e+00 -2.023077e+01  2.400000e+01
    endloop
  endfacet
  facet normal  0.000000e+00  0.000000e+00  1.000000e+00
    outer loop
      vertex  8.991236e+00 -2.171193e+01  2.400000e+01
      vertex  5.815376e+00 -2.023077e+01  2.400000e+01
      vertex  3.266738e-01 -2.104746e+01  2.400000e+01
    endloop
  endfacet
  facet normal  0.000000e+00  0.000000e+00  1.000000e+00
    outer loop
      vertex -2.304877e+00 -2.338670e+01  2.400000e+01
      vertex  3.446456e+00 -2.324590e+01  2.400000e+01
      vertex -7.918074e+00 -2.212587e+01  2.400000e+01
    endloop
  endfacet
  facet normal  -0.000000e+00  0.000000e+00  1.000000e+00
    outer loop
      vertex -7.918074e+00 -2.212587e+01  2.400000e+01
      vertex  3.446456e+00 -2.324590e+01  2.400000e+01
      vertex  8.991236e+00 -2.171193e+01  2.400000e+01
    endloop
  endfacet
  facet normal  0.000000e+00  0.000000e+00  1.000000e+00
    outer loop
      vertex -7.918074e+00 -2.212587e+01  2.400000e+01
      vertex  8.991236e+00 -2.171193e+01  2.400000e+01
      vertex  3.266738e-01 -2.104746e+01  2.400000e+01
    endloop
  endfacet
  facet normal  0.000000e+00  0.000000e+00  1.000000e+00
    outer loop
      vertex  3.266738e-01  2.104746e+01  2.400000e+01
      vertex -7.918074e+00  2.212587e+01  2.400000e+01
      vertex -5.184730e+00  2.040150e+01  2.400000e+01
    endloop
  endfacet
  facet normal  0.000000e+00  0.000000e+00  1.000000e+00
    outer loop
      vertex -5.184730e+00  2.040150e+01  2.400000e+01
      vertex -7.918074e+00  2.212587e+01  2.400000e+01
      vertex -1.305672e+01  1.953899e+01  2.400000e+01
    endloop
  endfacet
  facet normal  -0.000000e+00  0.000000e+00  9.999999e-01
    outer loop
      vertex -5.184730e+00  2.040150e+01  2.400000e+01
      vertex -1.305672e+01  1.953899e+01  2.400000e+01
      vertex -1.033583e+01  1.833775e+01  2.400000e+01
    endloop
  endfacet
  facet normal  0.000000e+00  0.000000e+00  1.000000e+00
    outer loop
      vertex -1.033583e+01  1.833775e+01  2.400000e+01
      vertex -1.305672e+01  1.953899e+01  2.400000e+01
      vertex -1.741285e+01  1.578109e+01  2.400000e+01
    endloop
  endfacet
  facet normal  -0.000000e+00  0.000000e+00  1.000000e+00
    outer loop
      vertex -1.033583e+01  1.833775e+01  2.400000e+01
      vertex -1.741285e+01  1.578109e+01  2.400000e+01
      vertex -1.476865e+01  1.499965e+01  2.400000e+01
    endloop
  endfacet
  facet normal  0.000000e+00  0.000000e+00  1.000000e+00
    outer loop
      vertex -1.476865e+01  1.499965e+01  2.400000e+01
      vertex -1.741285e+01  1.578109e+01  2.400000e+01
      vertex -1.817514e+01  1.061917e+01  2.400000e+01
    endloop
  endfacet
  facet normal  0.000000e+00  -0.000000e+00  1.000000e+00
    outer loop
      vertex -1.817514e+01  1.061917e+01  2.400000e+01
      vertex -1.741285e+01  1.578109e+01  2.400000e+01
      vertex -2.072538e+01  1.107739e+01  2.400000e+01
    endloop
  endfacet
  facet normal  0.000000e+00  0.000000e+00  9.999999e-01
    outer loop
      vertex -1.817514e+01  1.061917e+01  2.400000e+01
      vertex -2.072538e+01  1.107739e+01  2.400000e+01
      vertex -2.031858e+01  5.500715e+00  2.400000e+01
    endloop
  endfacet
  facet normal  0.000000e+00  0.000000e+00  1.000000e+00
    outer loop
      vertex -2.031858e+01  5.500715e+00  2.400000e+01
      vertex -2.072538e+01  1.107739e+01  2.400000e+01
      vertex -2.279579e+01  5.709795e+00  2.400000e+01
    endloop
  endfacet
  facet normal  0.000000e+00  0.000000e+00  1.000000e+00
    outer loop
      vertex -2.031858e+01  5.500715e+00  2.400000e+01
      vertex -2.279579e+01  5.709795e+00  2.400000e+01
      vertex -2.105000e+01 -6.770196e-15  2.400000e+01
    endloop
  endfacet
  facet normal  0.000000e+00  0.000000e+00  1.000000e+00
    outer loop
      vertex -2.105000e+01 -6.770196e-15  2.400000e+01
      vertex -2.279579e+01  5.709795e+00  2.400000e+01
      vertex -2.350000e+01 -7.558177e-15  2.400000e+01
    endloop
  endfacet
  facet normal  -0.000000e+00  0.000000e+00  1.000000e+00
    outer loop
      vertex -2.105000e+01 -6.770196e-15  2.400000e+01
      vertex -2.350000e+01 -7.558177e-15  2.400000e+01
      vertex -2.031858e+01 -5.500715e+00  2.400000e+01
    endloop
  endfacet
  facet normal  0.000000e+00  0.000000e+00  1.000000e+00
    outer loop
      vertex -2.031858e+01 -5.500715e+00  2.400000e+01
      vertex -2.350000e+01 -7.558177e-15  2.400000e+01
      vertex -2.279579e+01 -5.709795e+00  2.400000e+01
    endloop
  endfacet
  facet normal  -0.000000e+00  0.000000e+00  1.000000e+00
    outer loop
      vertex -2.031858e+01 -5.500715e+00  2.400000e+01
      vertex -2.279579e+01 -5.709795e+00  2.400000e+01
      vertex -1.817514e+01 -1.061917e+01  2.400000e+01
    endloop
  endfacet
  facet normal  0.000000e+00  0.000000e+00  1.000000e+00
    outer loop
      vertex -1.817514e+01 -1.061917e+01  2.400000e+01
      vertex -2.279579e+01 -5.709795e+00  2.400000e+01
      vertex -2.072538e+01 -1.107739e+01  2.400000e+01
    endloop
  endfacet
  facet normal  -0.000000e+00  0.000000e+00  1.000000e+00
    outer loop
      vertex -1.817514e+01 -1.061917e+01  2.400000e+01
      vertex -2.072538e+01 -1.107739e+01  2.400000e+01
      vertex -1.476865e+01 -1.499965e+01  2.400000e+01
    endloop
  endfacet
  facet normal  0.000000e+00  0.000000e+00  1.000000e+00
    outer loop
      vertex -1.476865e+01 -1.499965e+01  2.400000e+01
      vertex -2.072538e+01 -1.107739e+01  2.400000e+01
      vertex -1.741285e+01 -1.578109e+01  2.400000e+01
    endloop
  endfacet
  facet normal  -0.000000e+00  0.000000e+00  1.000000e+00
    outer loop
      vertex -1.476865e+01 -1.499965e+01  2.400000e+01
      vertex -1.741285e+01 -1.578109e+01  2.400000e+01
      vertex -1.033583e+01 -1.833775e+01  2.400000e+01
    endloop
  endfacet
  facet normal  0.000000e+00  0.000000e+00  1.000000e+00
    outer loop
      vertex -1.033583e+01 -1.833775e+01  2.400000e+01
      vertex -1.741285e+01 -1.578109e+01  2.400000e+01
      vertex -1.305672e+01 -1.953899e+01  2.400000e+01
    endloop
  endfacet
  facet normal  -0.000000e+00  0.000000e+00  9.999999e-01
    outer loop
      vertex -1.033583e+01 -1.833775e+01  2.400000e+01
      vertex -1.305672e+01 -1.953899e+01  2.400000e+01
      vertex -5.184730e+00 -2.040150e+01  2.400000e+01
    endloop
  endfacet
  facet normal  0.000000e+00  0.000000e+00  1.000000e+00
    outer loop
      vertex -5.184730e+00 -2.040150e+01  2.400000e+01
      vertex -1.305672e+01 -1.953899e+01  2.400000e+01
      vertex -7.918074e+00 -2.212587e+01  2.400000e+01
    endloop
  endfacet
  facet normal  0.000000e+00  0.000000e+00  1.000000e+00
    outer loop
      vertex -5.184730e+00 -2.040150e+01  2.400000e+01
      vertex -7.918074e+00 -2.212587e+01  2.400000e+01
      vertex  3.266738e-01 -2.104746e+01  2.400000e+01
    endloop
  endfacet
  facet normal  0.000000e+00  0.000000e+00  1.000000e+00
    outer loop
      vertex  3.446456e+00  2.324590e+01  2.400000e+01
      vertex -2.304877e+00  2.338670e+01  2.400000e+01
      vertex  8.991236e+00  2.171193e+01  2.400000e+01
    endloop
  endfacet
  facet normal  0.000000e+00  0.000000e+00  1.000000e+00
    outer loop
      vertex  8.991236e+00  2.171193e+01  2.400000e+01
      vertex -2.304877e+00  2.338670e+01  2.400000e+01
      vertex -7.918074e+00  2.212587e+01  2.400000e+01
    endloop
  endfacet
  facet normal  0.000000e+00  0.000000e+00  1.000000e+00
    outer loop
      vertex  8.991236e+00  2.171193e+01  2.400000e+01
      vertex -7.918074e+00  2.212587e+01  2.400000e+01
      vertex  3.266738e-01  2.104746e+01  2.400000e+01
    endloop
  endfacet
  facet normal  0.000000e+00  0.000000e+00  1.000000e+00
    outer loop
      vertex  1.849594e+01  1.005000e+01  2.400000e+01
      vertex  2.124259e+01  1.005000e+01  2.400000e+01
      vertex  1.522704e+01  1.453409e+01  2.400000e+01
    endloop
  endfacet
  facet normal  -0.000000e+00  0.000000e+00  9.999999e-01
    outer loop
      vertex  1.522704e+01  1.453409e+01  2.400000e+01
      vertex  2.124259e+01  1.005000e+01  2.400000e+01
      vertex  1.816418e+01  1.491015e+01  2.400000e+01
    endloop
  endfacet
  facet normal  0.000000e+00  0.000000e+00  1.000000e+00
    outer loop
      vertex  1.522704e+01  1.453409e+01  2.400000e+01
      vertex  1.816418e+01  1.491015e+01  2.400000e+01
      vertex  1.089995e+01  1.800816e+01  2.400000e+01
    endloop
  endfacet
  facet normal  -0.000000e+00  0.000000e+00  9.999999e-01
    outer loop
      vertex  1.089995e+01  1.800816e+01  2.400000e+01
      vertex  1.816418e+01  1.491015e+01  2.400000e+01
      vertex  1.399715e+01  1.887670e+01  2.400000e+01
    endloop
  endfacet
  facet normal  0.000000e+00  0.000000e+00  1.000000e+00
    outer loop
      vertex  1.089995e+01  1.800816e+01  2.400000e+01
      vertex  1.399715e+01  1.887670e+01  2.400000e+01
      vertex  5.815376e+00  2.023077e+01  2.400000e+01
    endloop
  endfacet
  facet normal  -0.000000e+00  0.000000e+00  1.000000e+00
    outer loop
      vertex  5.815376e+00  2.023077e+01  2.400000e+01
      vertex  1.399715e+01  1.887670e+01  2.400000e+01
      vertex  8.991236e+00  2.171193e+01  2.400000e+01
    endloop
  endfacet
  facet normal  0.000000e+00  0.000000e+00  1.000000e+00
    outer loop
      vertex  5.815376e+00  2.023077e+01  2.400000e+01
      vertex  8.991236e+00  2.171193e+01  2.400000e+01
      vertex  3.266738e-01  2.104746e+01  2.400000e+01
    endloop
  endfacet
  facet normal -7.933465e-01  6.087562e-01  4.164335e-03
    outer loop
      vertex  1.488460e+01 -1.488460e+01  1.000000e+01
      vertex  1.522704e+01 -1.453409e+01  2.400000e+01
      vertex  1.822984e+01 -1.052500e+01  1.000000e+01
    endloop
  endfacet
  facet normal -6.260500e-01  7.797715e-01 -4.209294e-03
    outer loop
      vertex  1.089995e+01 -1.800816e+01  2.400000e+01
      vertex  1.522704e+01 -1.453409e+01  2.400000e+01
      vertex  1.488460e+01 -1.488460e+01  1.000000e+01
    endloop
  endfacet
  facet normal -6.087572e-01  7.933477e-01  3.741557e-03
    outer loop
      vertex  1.052500e+01 -1.822984e+01  1.000000e+01
      vertex  1.089995e+01 -1.800816e+01  2.400000e+01
      vertex  1.488460e+01 -1.488460e+01  1.000000e+01
    endloop
  endfacet
  facet normal -4.005303e-01  9.162758e-01 -3.781617e-03
    outer loop
      vertex  5.815376e+00 -2.023077e+01  2.400000e+01
      vertex  1.089995e+01 -1.800816e+01  2.400000e+01
      vertex  1.052500e+01 -1.822984e+01  1.000000e+01
    endloop
  endfacet
  facet normal -3.826813e-01  9.238745e-01  3.308856e-03
    outer loop
      vertex  5.448141e+00 -2.033274e+01  1.000000e+01
      vertex  5.815376e+00 -2.023077e+01  2.400000e+01
      vertex  1.052500e+01 -1.822984e+01  1.000000e+01
    endloop
  endfacet
  facet normal -1.471750e-01  9.891048e-01 -3.343842e-03
    outer loop
      vertex  3.266738e-01 -2.104746e+01  2.400000e+01
      vertex  5.815376e+00 -2.023077e+01  2.400000e+01
      vertex  5.448141e+00 -2.033274e+01  1.000000e+01
    endloop
  endfacet
  facet normal -1.305255e-01  9.914408e-01  2.866149e-03
    outer loop
      vertex  1.482933e-14 -2.105000e+01  1.000000e+01
      vertex  3.266738e-01 -2.104746e+01  2.400000e+01
      vertex  5.448141e+00 -2.033274e+01  1.000000e+01
    endloop
  endfacet
  facet normal  1.164083e-01  9.931972e-01 -2.896083e-03
    outer loop
      vertex -5.184730e+00 -2.040150e+01  2.400000e+01
      vertex  3.266738e-01 -2.104746e+01  2.400000e+01
      vertex  1.482933e-14 -2.105000e+01  1.000000e+01
    endloop
  endfacet
  facet normal -9.914449e-01  1.305260e-01  5.891244e-16
    outer loop
      vertex  2.033274e+01 -5.448141e+00  1.000000e+01
      vertex  2.105000e+01  0.000000e+00  1.300000e+01
      vertex  2.105000e+01  1.354039e-14  1.000000e+01
    endloop
  endfacet
  facet normal -9.921985e-01  1.241035e-01  1.184379e-02
    outer loop
      vertex  2.105000e+01  0.000000e+00  1.300000e+01
      vertex  2.033274e+01 -5.448141e+00  1.000000e+01
      vertex  2.040150e+01 -5.184730e+00  1.300000e+01
    endloop
  endfacet
  facet normal -9.238082e-01  3.826538e-01 -1.242535e-02
    outer loop
      vertex  2.040150e+01 -5.184730e+00  1.300000e+01
      vertex  2.033274e+01 -5.448141e+00  1.000000e+01
      vertex  1.822984e+01 -1.052500e+01  1.000000e+01
    endloop
  endfacet
  facet normal -9.308417e-01  3.645773e-01  2.484393e-02
    outer loop
      vertex  2.040150e+01 -5.184730e+00  1.300000e+01
      vertex  1.822984e+01 -1.052500e+01  1.000000e+01
      vertex  1.849594e+01 -1.005000e+01  1.300000e+01
    endloop
  endfacet
  facet normal -8.261347e-01  5.632483e-01 -1.590011e-02
    outer loop
      vertex  1.849594e+01 -1.005000e+01  1.300000e+01
      vertex  1.822984e+01 -1.052500e+01  1.000000e+01
      vertex  1.522704e+01 -1.453409e+01  2.400000e+01
    endloop
  endfacet
  facet normal -8.080712e-01  5.890848e-01  0.000000e+00
    outer loop
      vertex  1.849594e+01 -1.005000e+01  1.300000e+01
      vertex  1.522704e+01 -1.453409e+01  2.400000e+01
      vertex  1.849594e+01 -1.005000e+01  2.400000e+01
    endloop
  endfacet
  facet normal  1.305256e-01  9.914420e-01  2.413406e-03
    outer loop
      vertex  1.482933e-14 -2.105000e+01  1.000000e+01
      vertex -5.448141e+00 -2.033274e+01  1.000000e+01
      vertex -5.184730e+00 -2.040150e+01  2.400000e+01
    endloop
  endfacet
  facet normal  3.826821e-01  9.238763e-01 -2.662770e-03
    outer loop
      vertex -5.184730e+00 -2.040150e+01  2.400000e+01
      vertex -5.448141e+00 -2.033274e+01  1.000000e+01
      vertex -1.052500e+01 -1.822984e+01  1.000000e+01
    endloop
  endfacet
  facet normal  3.719032e-01  9.282691e-01  2.130199e-03
    outer loop
      vertex -5.184730e+00 -2.040150e+01  2.400000e+01
      vertex -1.052500e+01 -1.822984e+01  1.000000e+01
      vertex -1.033583e+01 -1.833775e+01  2.400000e+01
    endloop
  endfacet
  facet normal  6.087601e-01  7.933515e-01 -2.110292e-03
    outer loop
      vertex -1.033583e+01 -1.833775e+01  2.400000e+01
      vertex -1.052500e+01 -1.822984e+01  1.000000e+01
      vertex -1.488460e+01 -1.488460e+01  1.000000e+01
    endloop
  endfacet
  facet normal  6.015536e-01  7.988309e-01  1.582709e-03
    outer loop
      vertex -1.033583e+01 -1.833775e+01  2.400000e+01
      vertex -1.488460e+01 -1.488460e+01  1.000000e+01
      vertex -1.476865e+01 -1.499965e+01  2.400000e+01
    endloop
  endfacet
  facet normal  7.933524e-01  6.087608e-01 -1.567777e-03
    outer loop
      vertex -1.476865e+01 -1.499965e+01  2.400000e+01
      vertex -1.488460e+01 -1.488460e+01  1.000000e+01
      vertex -1.822984e+01 -1.052500e+01  1.000000e+01
    endloop
  endfacet
  facet normal  7.893997e-01  6.138787e-01  1.045219e-03
    outer loop
      vertex -1.476865e+01 -1.499965e+01  2.400000e+01
      vertex -1.822984e+01 -1.052500e+01  1.000000e+01
      vertex -1.817514e+01 -1.061917e+01  2.400000e+01
    endloop
  endfacet
  facet normal  9.238790e-01  3.826832e-01 -1.035178e-03
    outer loop
      vertex -1.817514e+01 -1.061917e+01  2.400000e+01
      vertex -1.822984e+01 -1.052500e+01  1.000000e+01
      vertex -2.033274e+01 -5.448141e+00  1.000000e+01
    endloop
  endfacet
  facet normal  9.223878e-01  3.862649e-01  5.175999e-04
    outer loop
      vertex -1.817514e+01 -1.061917e+01  2.400000e+01
      vertex -2.033274e+01 -5.448141e+00  1.000000e+01
      vertex -2.031858e+01 -5.500715e+00  2.400000e+01
    endloop
  endfacet
  facet normal  9.914448e-01  1.305260e-01 -5.126228e-04
    outer loop
      vertex -2.031858e+01 -5.500715e+00  2.400000e+01
      vertex -2.033274e+01 -5.448141e+00  1.000000e+01
      vertex -2.105000e+01 -6.770196e-15  1.000000e+01
    endloop
  endfacet
  facet normal  9.912753e-01  1.318081e-01  -0.000000e+00
    outer loop
      vertex -2.031858e+01 -5.500715e+00  2.400000e+01
      vertex -2.105000e+01 -6.770196e-15  1.000000e+01
      vertex -2.105000e+01 -6.770196e-15  2.400000e+01
    endloop
  endfacet
  facet normal  1.164083e-01 -9.931972e-01 -2.896083e-03
    outer loop
      vertex -3.385098e-15  2.105000e+01  1.000000e+01
      vertex  3.266738e-01  2.104746e+01  2.400000e+01
      vertex -5.184730e+00  2.040150e+01  2.400000e+01
    endloop
  endfacet
  facet normal -1.305255e-01 -9.914408e-01  2.866149e-03
    outer loop
      vertex  3.266738e-01  2.104746e+01  2.400000e+01
      vertex -3.385098e-15  2.105000e+01  1.000000e+01
      vertex  5.448141e+00  2.033274e+01  1.000000e+01
    endloop
  endfacet
  facet normal -1.471750e-01 -9.891048e-01 -3.343842e-03
    outer loop
      vertex  5.448141e+00  2.033274e+01  1.000000e+01
      vertex  5.815376e+00  2.023077e+01  2.400000e+01
      vertex  3.266738e-01  2.104746e+01  2.400000e+01
    endloop
  endfacet
  facet normal -3.826813e-01 -9.238745e-01  3.308856e-03
    outer loop
      vertex  5.815376e+00  2.023077e+01  2.400000e+01
      vertex  5.448141e+00  2.033274e+01  1.000000e+01
      vertex  1.052500e+01  1.822984e+01  1.000000e+01
    endloop
  endfacet
  facet normal -4.005303e-01 -9.162758e-01 -3.781617e-03
    outer loop
      vertex  1.052500e+01  1.822984e+01  1.000000e+01
      vertex  1.089995e+01  1.800816e+01  2.400000e+01
      vertex  5.815376e+00  2.023077e+01  2.400000e+01
    endloop
  endfacet
  facet normal -6.087572e-01 -7.933478e-01  3.741557e-03
    outer loop
      vertex  1.089995e+01  1.800816e+01  2.400000e+01
      vertex  1.052500e+01  1.822984e+01  1.000000e+01
      vertex  1.488460e+01  1.488460e+01  1.000000e+01
    endloop
  endfacet
  facet normal -6.260500e-01 -7.797715e-01 -4.209294e-03
    outer loop
      vertex  1.488460e+01  1.488460e+01  1.000000e+01
      vertex  1.522704e+01  1.453409e+01  2.400000e+01
      vertex  1.089995e+01  1.800816e+01  2.400000e+01
    endloop
  endfacet
  facet normal -7.933465e-01 -6.087562e-01  4.164335e-03
    outer loop
      vertex  1.522704e+01  1.453409e+01  2.400000e+01
      vertex  1.488460e+01  1.488460e+01  1.000000e+01
      vertex  1.822984e+01  1.052500e+01  1.000000e+01
    endloop
  endfacet
  facet normal -9.922682e-01 -1.241122e-01 -5.601760e-16
    outer loop
      vertex  2.040150e+01  5.184730e+00  1.300000e+01
      vertex  2.105000e+01  1.354039e-14  1.000000e+01
      vertex  2.105000e+01  0.000000e+00  1.300000e+01
    endloop
  endfacet
  facet normal -9.913821e-01 -1.305177e-01  1.126188e-02
    outer loop
      vertex  2.105000e+01  1.354039e-14  1.000000e+01
      vertex  2.040150e+01  5.184730e+00  1.300000e+01
      vertex  2.033274e+01  5.448141e+00  1.000000e+01
    endloop
  endfacet
  facet normal -9.310759e-01 -3.646691e-01 -1.067964e-02
    outer loop
      vertex  2.033274e+01  5.448141e+00  1.000000e+01
      vertex  2.040150e+01  5.184730e+00  1.300000e+01
      vertex  1.849594e+01  1.005000e+01  1.300000e+01
    endloop
  endfacet
  facet normal -9.236689e-01 -3.825961e-01  2.135470e-02
    outer loop
      vertex  2.033274e+01  5.448141e+00  1.000000e+01
      vertex  1.849594e+01  1.005000e+01  1.300000e+01
      vertex  1.822984e+01  1.052500e+01  1.000000e+01
    endloop
  endfacet
  facet normal -8.724200e-01 -4.887568e-01  0.000000e+00
    outer loop
      vertex  1.822984e+01  1.052500e+01  1.000000e+01
      vertex  1.849594e+01  1.005000e+01  1.300000e+01
      vertex  1.849594e+01  1.005000e+01  2.400000e+01
    endloop
  endfacet
  facet normal -8.080626e-01 -5.890784e-01 -4.627060e-03
    outer loop
      vertex  1.822984e+01  1.052500e+01  1.000000e+01
      vertex  1.849594e+01  1.005000e+01  2.400000e+01
      vertex  1.522704e+01  1.453409e+01  2.400000e+01
    endloop
  endfacet
  facet normal  1.305256e-01 -9.914420e-01  2.413406e-03
    outer loop
      vertex -3.385098e-15  2.105000e+01  1.000000e+01
      vertex -5.184730e+00  2.040150e+01  2.400000e+01
      vertex -5.448141e+00  2.033274e+01  1.000000e+01
    endloop
  endfacet
  facet normal  3.719030e-01 -9.282684e-01 -2.438390e-03
    outer loop
      vertex -5.448141e+00  2.033274e+01  1.000000e+01
      vertex -5.184730e+00  2.040150e+01  2.400000e+01
      vertex -1.033583e+01  1.833775e+01  2.400000e+01
    endloop
  endfacet
  facet normal  3.826827e-01 -9.238778e-01  1.950694e-03
    outer loop
      vertex -5.448141e+00  2.033274e+01  1.000000e+01
      vertex -1.033583e+01  1.833775e+01  2.400000e+01
      vertex -1.052500e+01  1.822984e+01  1.000000e+01
    endloop
  endfacet
  facet normal  6.015531e-01 -7.988303e-01 -1.970676e-03
    outer loop
      vertex -1.052500e+01  1.822984e+01  1.000000e+01
      vertex -1.033583e+01  1.833775e+01  2.400000e+01
      vertex -1.476865e+01  1.499965e+01  2.400000e+01
    endloop
  endfacet
  facet normal  6.087608e-01 -7.933525e-01  1.477996e-03
    outer loop
      vertex -1.052500e+01  1.822984e+01  1.000000e+01
      vertex -1.476865e+01  1.499965e+01  2.400000e+01
      vertex -1.488460e+01  1.488460e+01  1.000000e+01
    endloop
  endfacet
  facet normal  7.893992e-01 -6.138784e-01 -1.492981e-03
    outer loop
      vertex -1.488460e+01  1.488460e+01  1.000000e+01
      vertex -1.476865e+01  1.499965e+01  2.400000e+01
      vertex -1.817514e+01  1.061917e+01  2.400000e+01
    endloop
  endfacet
  facet normal  7.933528e-01 -6.087611e-01  9.953551e-04
    outer loop
      vertex -1.488460e+01  1.488460e+01  1.000000e+01
      vertex -1.817514e+01  1.061917e+01  2.400000e+01
      vertex -1.822984e+01  1.052500e+01  1.000000e+01
    endloop
  endfacet
  facet normal  9.223874e-01 -3.862648e-01 -1.005261e-03
    outer loop
      vertex -1.822984e+01  1.052500e+01  1.000000e+01
      vertex -1.817514e+01  1.061917e+01  2.400000e+01
      vertex -2.031858e+01  5.500715e+00  2.400000e+01
    endloop
  endfacet
  facet normal  9.238794e-01 -3.826833e-01  5.026411e-04
    outer loop
      vertex -1.822984e+01  1.052500e+01  1.000000e+01
      vertex -2.031858e+01  5.500715e+00  2.400000e+01
      vertex -2.033274e+01  5.448141e+00  1.000000e+01
    endloop
  endfacet
  facet normal  9.912751e-01 -1.318081e-01 -5.076364e-04
    outer loop
      vertex -2.033274e+01  5.448141e+00  1.000000e+01
      vertex -2.031858e+01  5.500715e+00  2.400000e+01
      vertex -2.105000e+01 -6.770196e-15  2.400000e+01
    endloop
  endfacet
  facet normal  9.914449e-01 -1.305260e-01  0.000000e+00
    outer loop
      vertex -2.033274e+01  5.448141e+00  1.000000e+01
      vertex -2.105000e+01 -6.770196e-15  2.400000e+01
      vertex -2.105000e+01 -6.770196e-15  1.000000e+01
    endloop
  endfacet
  facet normal  0.000000e+00  1.000000e+00  -0.000000e+00
    outer loop
      vertex  2.124259e+01 -1.005000e+01  2.400000e+01
      vertex  2.124259e+01 -1.005000e+01  1.300000e+01
      vertex  1.849594e+01 -1.005000e+01  2.400000e+01
    endloop
  endfacet
  facet normal  0.000000e+00  1.000000e+00  0.000000e+00
    outer loop
      vertex  1.849594e+01 -1.005000e+01  2.400000e+01
      vertex  2.124259e+01 -1.005000e+01  1.300000e+01
      vertex  1.849594e+01 -1.005000e+01  1.300000e+01
    endloop
  endfacet
  facet normal  0.000000e+00 -1.000000e+00  0.000000e+00
    outer loop
      vertex  1.849594e+01  1.005000e+01  2.400000e+01
      vertex  1.849594e+01  1.005000e+01  1.300000e+01
      vertex  2.124259e+01  1.005000e+01  2.400000e+01
    endloop
  endfacet
  facet normal  0.000000e+00 -1.000000e+00  -0.000000e+00
    outer loop
      vertex  2.124259e+01  1.005000e+01  2.400000e+01
      vertex  1.849594e+01  1.005000e+01  1.300000e+01
      vertex  2.124259e+01  1.005000e+01  1.300000e+01
    endloop
  endfacet
  facet normal  -0.000000e+00  0.000000e+00  1.000000e+00
    outer loop
      vertex  2.124259e+01  1.005000e+01  1.300000e+01
      vertex  1.849594e+01  1.005000e+01  1.300000e+01
      vertex  2.292870e+01  5.150204e+00  1.300000e+01
    endloop
  endfacet
  facet normal  0.000000e+00  0.000000e+00  1.000000e+00
    outer loop
      vertex  2.292870e+01  5.150204e+00  1.300000e+01
      vertex  1.849594e+01  1.005000e+01  1.300000e+01
      vertex  2.040150e+01  5.184730e+00  1.300000e+01
    endloop
  endfacet
  facet normal  0.000000e+00  0.000000e+00  1.000000e+00
    outer loop
      vertex  2.292870e+01  5.150204e+00  1.300000e+01
      vertex  2.040150e+01  5.184730e+00  1.300000e+01
      vertex  2.350000e+01  0.000000e+00  1.300000e+01
    endloop
  endfacet
  facet normal  0.000000e+00  0.000000e+00  1.000000e+00
    outer loop
      vertex  2.350000e+01  0.000000e+00  1.300000e+01
      vertex  2.040150e+01  5.184730e+00  1.300000e+01
      vertex  2.105000e+01  0.000000e+00  1.300000e+01
    endloop
  endfacet
  facet normal  -0.000000e+00  0.000000e+00  1.000000e+00
    outer loop
      vertex  2.350000e+01  0.000000e+00  1.300000e+01
      vertex  2.105000e+01  0.000000e+00  1.300000e+01
      vertex  2.292870e+01 -5.150204e+00  1.300000e+01
    endloop
  endfacet
  facet normal  0.000000e+00  0.000000e+00  9.999999e-01
    outer loop
      vertex  2.292870e+01 -5.150204e+00  1.300000e+01
      vertex  2.105000e+01  0.000000e+00  1.300000e+01
      vertex  2.040150e+01 -5.184730e+00  1.300000e+01
    endloop
  endfacet
  facet normal  -0.000000e+00  0.000000e+00  1.000000e+00
    outer loop
      vertex  2.292870e+01 -5.150204e+00  1.300000e+01
      vertex  2.040150e+01 -5.184730e+00  1.300000e+01
      vertex  2.124259e+01 -1.005000e+01  1.300000e+01
    endloop
  endfacet
  facet normal  0.000000e+00  0.000000e+00  1.000000e+00
    outer loop
      vertex  2.124259e+01 -1.005000e+01  1.300000e+01
      vertex  2.040150e+01 -5.184730e+00  1.300000e+01
      vertex  1.849594e+01 -1.005000e+01  1.300000e+01
    endloop
  endfacet
  facet normal  0.000000e+00  0.000000e+00  1.000000e+00
    outer loop
      vertex -5.448141e+00  2.033274e+01  1.000000e+01
      vertex  5.448141e+00  2.033274e+01  1.000000e+01
      vertex -3.385098e-15  2.105000e+01  1.000000e+01
    endloop
  endfacet
  facet normal  -0.000000e+00  0.000000e+00  9.999999e-01
    outer loop
      vertex  5.448141e+00  2.033274e+01  1.000000e+01
      vertex -5.448141e+00  2.033274e+01  1.000000e+01
      vertex  1.052500e+01  1.822984e+01  1.000000e+01
    endloop
  endfacet
  facet normal  0.000000e+00  0.000000e+00  1.000000e+00
    outer loop
      vertex  1.052500e+01  1.822984e+01  1.000000e+01
      vertex -5.448141e+00  2.033274e+01  1.000000e+01
      vertex -1.052500e+01  1.822984e+01  1.000000e+01
    endloop
  endfacet
  facet normal  -0.000000e+00  0.000000e+00  1.000000e+00
    outer loop
      vertex  1.052500e+01  1.822984e+01  1.000000e+01
      vertex -1.052500e+01  1.822984e+01  1.000000e+01
      vertex  1.488460e+01  1.488460e+01  1.000000e+01
    endloop
  endfacet
  facet normal  0.000000e+00  0.000000e+00  1.000000e+00
    outer loop
      vertex  1.488460e+01  1.488460e+01  1.000000e+01
      vertex -1.052500e+01  1.822984e+01  1.000000e+01
      vertex -1.488460e+01  1.488460e+01  1.000000e+01
    endloop
  endfacet
  facet normal  -0.000000e+00  0.000000e+00  1.000000e+00
    outer loop
      vertex  1.488460e+01  1.488460e+01  1.000000e+01
      vertex -1.488460e+01  1.488460e+01  1.000000e+01
      vertex  1.822984e+01  1.052500e+01  1.000000e+01
    endloop
  endfacet
  facet normal  0.000000e+00  0.000000e+00  1.000000e+00
    outer loop
      vertex  1.822984e+01  1.052500e+01  1.000000e+01
      vertex -1.488460e+01  1.488460e+01  1.000000e+01
      vertex -1.822984e+01  1.052500e+01  1.000000e+01
    endloop
  endfacet
  facet normal  -0.000000e+00  0.000000e+00  1.000000e+00
    outer loop
      vertex  1.822984e+01  1.052500e+01  1.000000e+01
      vertex -1.822984e+01  1.052500e+01  1.000000e+01
      vertex  2.033274e+01  5.448141e+00  1.000000e+01
    endloop
  endfacet
  facet normal  0.000000e+00  0.000000e+00  1.000000e+00
    outer loop
      vertex  2.033274e+01  5.448141e+00  1.000000e+01
      vertex -1.822984e+01  1.052500e+01  1.000000e+01
      vertex -2.033274e+01  5.448141e+00  1.000000e+01
    endloop
  endfacet
  facet normal  -0.000000e+00  0.000000e+00  1.000000e+00
    outer loop
      vertex  2.033274e+01  5.448141e+00  1.000000e+01
      vertex -2.033274e+01  5.448141e+00  1.000000e+01
      vertex  2.105000e+01  1.354039e-14  1.000000e+01
    endloop
  endfacet
  facet normal  0.000000e+00  0.000000e+00  1.000000e+00
    outer loop
      vertex  2.105000e+01  1.354039e-14  1.000000e+01
      vertex -2.033274e+01  5.448141e+00  1.000000e+01
      vertex -2.105000e+01 -6.770196e-15  1.000000e+01
    endloop
  endfacet
  facet normal  -0.000000e+00  0.000000e+00  1.000000e+00
    outer loop
      vertex  2.105000e+01  1.354039e-14  1.000000e+01
      vertex -2.105000e+01 -6.770196e-15  1.000000e+01
      vertex  2.033274e+01 -5.448141e+00  1.000000e+01
    endloop
  endfacet
  facet normal  0.000000e+00  0.000000e+00  1.000000e+00
    outer loop
      vertex  2.033274e+01 -5.448141e+00  1.000000e+01
      vertex -2.105000e+01 -6.770196e-15  1.000000e+01
      vertex -2.033274e+01 -5.448141e+00  1.000000e+01
    endloop
  endfacet
  facet normal  -0.000000e+00  0.000000e+00  1.000000e+00
    outer loop
      vertex  2.033274e+01 -5.448141e+00  1.000000e+01
      vertex -2.033274e+01 -5.448141e+00  1.000000e+01
      vertex  1.822984e+01 -1.052500e+01  1.000000e+01
    endloop
  endfacet
  facet normal  0.000000e+00  0.000000e+00  1.000000e+00
    outer loop
      vertex  1.822984e+01 -1.052500e+01  1.000000e+01
      vertex -2.033274e+01 -5.448141e+00  1.000000e+01
      vertex -1.822984e+01 -1.052500e+01  1.000000e+01
    endloop
  endfacet
  facet normal  -0.000000e+00  0.000000e+00  1.000000e+00
    outer loop
      vertex  1.822984e+01 -1.052500e+01  1.000000e+01
      vertex -1.822984e+01 -1.052500e+01  1.000000e+01
      vertex  1.488460e+01 -1.488460e+01  1.000000e+01
    endloop
  endfacet
  facet normal  0.000000e+00  0.000000e+00  1.000000e+00
    outer loop
      vertex  1.488460e+01 -1.488460e+01  1.000000e+01
      vertex -1.822984e+01 -1.052500e+01  1.000000e+01
      vertex -1.488460e+01 -1.488460e+01  1.000000e+01
    endloop
  endfacet
  facet normal  -0.000000e+00  0.000000e+00  1.000000e+00
    outer loop
      vertex  1.488460e+01 -1.488460e+01  1.000000e+01
      vertex -1.488460e+01 -1.488460e+01  1.000000e+01
      vertex  1.052500e+01 -1.822984e+01  1.000000e+01
    endloop
  endfacet
  facet normal  0.000000e+00  0.000000e+00  1.000000e+00
    outer loop
      vertex  1.052500e+01 -1.822984e+01  1.000000e+01
      vertex -1.488460e+01 -1.488460e+01  1.000000e+01
      vertex -1.052500e+01 -1.822984e+01  1.000000e+01
    endloop
  endfacet
  facet normal  -0.000000e+00  0.000000e+00  1.000000e+00
    outer loop
      vertex  1.052500e+01 -1.822984e+01  1.000000e+01
      vertex -1.052500e+01 -1.822984e+01  1.000000e+01
      vertex  5.448141e+00 -2.033274e+01  1.000000e+01
    endloop
  endfacet
  facet normal  0.000000e+00  0.000000e+00  9.999999e-01
    outer loop
      vertex  5.448141e+00 -2.033274e+01  1.000000e+01
      vertex -1.052500e+01 -1.822984e+01  1.000000e+01
      vertex -5.448141e+00 -2.033274e+01  1.000000e+01
    endloop
  endfacet
  facet normal  -0.000000e+00  0.000000e+00  1.000000e+00
    outer loop
      vertex  5.448141e+00 -2.033274e+01  1.000000e+01
      vertex -5.448141e+00 -2.033274e+01  1.000000e+01
      vertex  1.482933e-14 -2.105000e+01  1.000000e+01
    endloop
  endfacet
  facet normal  -0.000000e+00  0.000000e+00  1.000000e+00
    outer loop
      vertex -1.334952e+01  1.934012e+01  1.000000e+01
      vertex -4.698463e+01  1.710101e+01  1.000000e+01
      vertex -1.759000e+01  1.558338e+01  1.000000e+01
    endloop
  endfacet
  facet normal  0.000000e+00  0.000000e+00  1.000000e+00
    outer loop
      vertex  4.698463e+01  1.710101e+01  1.000000e+01
      vertex  8.333215e+00  2.197288e+01  1.000000e+01
      vertex  1.334952e+01  1.934012e+01  1.000000e+01
    endloop
  endfacet
  facet normal  0.000000e+00  -0.000000e+00  9.999999e-01
    outer loop
      vertex  1.334952e+01  1.934012e+01  1.000000e+01
      vertex  1.759000e+01  1.558338e+01  1.000000e+01
      vertex  4.698463e+01  1.710101e+01  1.000000e+01
    endloop
  endfacet
  facet normal  0.000000e+00  0.000000e+00  1.000000e+00
    outer loop
      vertex -4.330127e+01  2.500000e+01  1.000000e+01
      vertex -8.682409e+00  4.924039e+01  1.000000e+01
      vertex -1.710101e+01  4.698463e+01  1.000000e+01
    endloop
  endfacet
  facet normal  0.000000e+00  0.000000e+00  1.000000e+00
    outer loop
      vertex -4.330127e+01  2.500000e+01  1.000000e+01
      vertex -1.710101e+01  4.698463e+01  1.000000e+01
      vertex -2.500000e+01  4.330127e+01  1.000000e+01
    endloop
  endfacet
  facet normal  0.000000e+00  0.000000e+00  1.000000e+00
    outer loop
      vertex -4.330127e+01  2.500000e+01  1.000000e+01
      vertex -2.500000e+01  4.330127e+01  1.000000e+01
      vertex -3.213938e+01  3.830222e+01  1.000000e+01
    endloop
  endfacet
  facet normal  0.000000e+00  0.000000e+00  1.000000e+00
    outer loop
      vertex -4.330127e+01  2.500000e+01  1.000000e+01
      vertex -3.213938e+01  3.830222e+01  1.000000e+01
      vertex -3.830222e+01  3.213938e+01  1.000000e+01
    endloop
  endfacet
  facet normal  -0.000000e+00  -0.000000e+00  1.000000e+00
    outer loop
      vertex  2.832612e+00  2.332866e+01  1.000000e+01
      vertex  8.333215e+00  2.197288e+01  1.000000e+01
      vertex  4.698463e+01  1.710101e+01  1.000000e+01
    endloop
  endfacet
  facet normal  0.000000e+00  0.000000e+00  1.000000e+00
    outer loop
      vertex  2.832612e+00  2.332866e+01  1.000000e+01
      vertex  4.698463e+01  1.710101e+01  1.000000e+01
      vertex  4.330127e+01  2.500000e+01  1.000000e+01
    endloop
  endfacet
  facet normal  0.000000e+00  0.000000e+00  1.000000e+00
    outer loop
      vertex  2.832612e+00  2.332866e+01  1.000000e+01
      vertex  4.330127e+01  2.500000e+01  1.000000e+01
      vertex  3.830222e+01  3.213938e+01  1.000000e+01
    endloop
  endfacet
  facet normal  0.000000e+00  0.000000e+00  1.000000e+00
    outer loop
      vertex  2.832612e+00  2.332866e+01  1.000000e+01
      vertex  3.830222e+01  3.213938e+01  1.000000e+01
      vertex  3.213938e+01  3.830222e+01  1.000000e+01
    endloop
  endfacet
  facet normal  0.000000e+00  0.000000e+00  1.000000e+00
    outer loop
      vertex  2.832612e+00  2.332866e+01  1.000000e+01
      vertex  3.213938e+01  3.830222e+01  1.000000e+01
      vertex  2.500000e+01  4.330127e+01  1.000000e+01
    endloop
  endfacet
  facet normal  0.000000e+00  0.000000e+00  1.000000e+00
    outer loop
      vertex  2.832612e+00  2.332866e+01  1.000000e+01
      vertex  2.500000e+01  4.330127e+01  1.000000e+01
      vertex  1.710101e+01  4.698463e+01  1.000000e+01
    endloop
  endfacet
  facet normal  0.000000e+00  0.000000e+00  1.000000e+00
    outer loop
      vertex  2.832612e+00  2.332866e+01  1.000000e+01
      vertex  1.710101e+01  4.698463e+01  1.000000e+01
      vertex  8.682409e+00  4.924039e+01  1.000000e+01
    endloop
  endfacet
  facet normal  0.000000e+00  -0.000000e+00  1.000000e+00
    outer loop
      vertex -9.184851e-15 -5.000000e+01  1.000000e+01
      vertex  8.682409e+00 -4.924039e+01  1.000000e+01
      vertex  1.710101e+01 -4.698463e+01  1.000000e+01
    endloop
  endfacet
  facet normal  0.000000e+00  -0.000000e+00  1.000000e+00
    outer loop
      vertex -9.184851e-15 -5.000000e+01  1.000000e+01
      vertex  1.710101e+01 -4.698463e+01  1.000000e+01
      vertex  2.500000e+01 -4.330127e+01  1.000000e+01
    endloop
  endfacet
  facet normal  0.000000e+00  -0.000000e+00  1.000000e+00
    outer loop
      vertex -9.184851e-15 -5.000000e+01  1.000000e+01
      vertex  2.500000e+01 -4.330127e+01  1.000000e+01
      vertex  3.213938e+01 -3.830222e+01  1.000000e+01
    endloop
  endfacet
  facet normal  0.000000e+00  -0.000000e+00  1.000000e+00
    outer loop
      vertex -9.184851e-15 -5.000000e+01  1.000000e+01
      vertex  3.213938e+01 -3.830222e+01  1.000000e+01
      vertex  3.830222e+01 -3.213938e+01  1.000000e+01
    endloop
  endfacet
  facet normal  0.000000e+00  -0.000000e+00  1.000000e+00
    outer loop
      vertex -9.184851e-15 -5.000000e+01  1.000000e+01
      vertex  3.830222e+01 -3.213938e+01  1.000000e+01
      vertex  4.330127e+01 -2.500000e+01  1.000000e+01
    endloop
  endfacet
  facet normal  0.000000e+00  0.000000e+00  9.999999e-01
    outer loop
      vertex -9.184851e-15 -5.000000e+01  1.000000e+01
      vertex  4.330127e+01 -2.500000e+01  1.000000e+01
      vertex  2.832612e+00 -2.332866e+01  1.000000e+01
    endloop
  endfacet
  facet normal  0.000000e+00  0.000000e+00  1.000000e+00
    outer loop
      vertex -9.184851e-15 -5.000000e+01  1.000000e+01
      vertex  2.832612e+00 -2.332866e+01  1.000000e+01
      vertex -2.832612e+00 -2.332866e+01  1.000000e+01
    endloop
  endfacet
  facet normal  0.000000e+00  0.000000e+00  9.999999e-01
    outer loop
      vertex -9.184851e-15 -5.000000e+01  1.000000e+01
      vertex -2.832612e+00 -2.332866e+01  1.000000e+01
      vertex -4.330127e+01 -2.500000e+01  1.000000e+01
    endloop
  endfacet
  facet normal  0.000000e+00  0.000000e+00  1.000000e+00
    outer loop
      vertex -9.184851e-15 -5.000000e+01  1.000000e+01
      vertex -4.330127e+01 -2.500000e+01  1.000000e+01
      vertex -3.830222e+01 -3.213938e+01  1.000000e+01
    endloop
  endfacet
  facet normal  0.000000e+00  0.000000e+00  1.000000e+00
    outer loop
      vertex -9.184851e-15 -5.000000e+01  1.000000e+01
      vertex -3.830222e+01 -3.213938e+01  1.000000e+01
      vertex -3.213938e+01 -3.830222e+01  1.000000e+01
    endloop
  endfacet
  facet normal  0.000000e+00  0.000000e+00  1.000000e+00
    outer loop
      vertex -9.184851e-15 -5.000000e+01  1.000000e+01
      vertex -3.213938e+01 -3.830222e+01  1.000000e+01
      vertex -2.500000e+01 -4.330127e+01  1.000000e+01
    endloop
  endfacet
  facet normal  0.000000e+00  0.000000e+00  1.000000e+00
    outer loop
      vertex -9.184851e-15 -5.000000e+01  1.000000e+01
      vertex -2.500000e+01 -4.330127e+01  1.000000e+01
      vertex -1.710101e+01 -4.698463e+01  1.000000e+01
    endloop
  endfacet
  facet normal  0.000000e+00  0.000000e+00  1.000000e+00
    outer loop
      vertex -9.184851e-15 -5.000000e+01  1.000000e+01
      vertex -1.710101e+01 -4.698463e+01  1.000000e+01
      vertex -8.682409e+00 -4.924039e+01  1.000000e+01
    endloop
  endfacet
  facet normal  0.000000e+00  0.000000e+00  1.000000e+00
    outer loop
      vertex -4.330127e+01 -2.500000e+01  1.000000e+01
      vertex -2.832612e+00 -2.332866e+01  1.000000e+01
      vertex -8.333215e+00 -2.197288e+01  1.000000e+01
    endloop
  endfacet
  facet normal  0.000000e+00  0.000000e+00  1.000000e+00
    outer loop
      vertex -4.330127e+01 -2.500000e+01  1.000000e+01
      vertex -8.333215e+00 -2.197288e+01  1.000000e+01
      vertex -1.334952e+01 -1.934012e+01  1.000000e+01
    endloop
  endfacet
  facet normal  0.000000e+00  0.000000e+00  1.000000e+00
    outer loop
      vertex -4.330127e+01 -2.500000e+01  1.000000e+01
      vertex -1.334952e+01 -1.934012e+01  1.000000e+01
      vertex -1.759000e+01 -1.558338e+01  1.000000e+01
    endloop
  endfacet
  facet normal  0.000000e+00  0.000000e+00  1.000000e+00
    outer loop
      vertex -4.330127e+01 -2.500000e+01  1.000000e+01
      vertex -1.759000e+01 -1.558338e+01  1.000000e+01
      vertex -4.698463e+01 -1.710101e+01  1.000000e+01
    endloop
  endfacet
  facet normal  0.000000e+00  0.000000e+00  1.000000e+00
    outer loop
      vertex  4.330127e+01 -2.500000e+01  1.000000e+01
      vertex  4.698463e+01 -1.710101e+01  1.000000e+01
      vertex  1.759000e+01 -1.558338e+01  1.000000e+01
    endloop
  endfacet
  facet normal  0.000000e+00  0.000000e+00  1.000000e+00
    outer loop
      vertex  4.330127e+01 -2.500000e+01  1.000000e+01
      vertex  1.759000e+01 -1.558338e+01  1.000000e+01
      vertex  1.334952e+01 -1.934012e+01  1.000000e+01
    endloop
  endfacet
  facet normal  0.000000e+00  0.000000e+00  1.000000e+00
    outer loop
      vertex  4.330127e+01 -2.500000e+01  1.000000e+01
      vertex  1.334952e+01 -1.934012e+01  1.000000e+01
      vertex  8.333215e+00 -2.197288e+01  1.000000e+01
    endloop
  endfacet
  facet normal  0.000000e+00  0.000000e+00  1.000000e+00
    outer loop
      vertex  4.330127e+01 -2.500000e+01  1.000000e+01
      vertex  8.333215e+00 -2.197288e+01  1.000000e+01
      vertex  2.832612e+00 -2.332866e+01  1.000000e+01
    endloop
  endfacet
  facet normal  0.000000e+00  0.000000e+00  1.000000e+00
    outer loop
      vertex  2.832612e+00  2.332866e+01  1.000000e+01
      vertex  8.682409e+00  4.924039e+01  1.000000e+01
      vertex -2.832612e+00  2.332866e+01  1.000000e+01
    endloop
  endfacet
  facet normal  0.000000e+00  0.000000e+00  1.000000e+00
    outer loop
      vertex -2.832612e+00  2.332866e+01  1.000000e+01
      vertex  8.682409e+00  4.924039e+01  1.000000e+01
      vertex  3.061617e-15  5.000000e+01  1.000000e+01
    endloop
  endfacet
  facet normal  0.000000e+00  0.000000e+00  9.999999e-01
    outer loop
      vertex -2.832612e+00  2.332866e+01  1.000000e+01
      vertex  3.061617e-15  5.000000e+01  1.000000e+01
      vertex -4.330127e+01  2.500000e+01  1.000000e+01
    endloop
  endfacet
  facet normal  0.000000e+00  0.000000e+00  1.000000e+00
    outer loop
      vertex -4.330127e+01  2.500000e+01  1.000000e+01
      vertex  3.061617e-15  5.000000e+01  1.000000e+01
      vertex -8.682409e+00  4.924039e+01  1.000000e+01
    endloop
  endfacet
  facet normal  0.000000e+00  0.000000e+00  1.000000e+00
    outer loop
      vertex -2.832612e+00  2.332866e+01  1.000000e+01
      vertex -4.330127e+01  2.500000e+01  1.000000e+01
      vertex -8.333215e+00  2.197288e+01  1.000000e+01
    endloop
  endfacet
  facet normal  0.000000e+00  0.000000e+00  1.000000e+00
    outer loop
      vertex -8.333215e+00  2.197288e+01  1.000000e+01
      vertex -4.330127e+01  2.500000e+01  1.000000e+01
      vertex -4.698463e+01  1.710101e+01  1.000000e+01
    endloop
  endfacet
  facet normal  0.000000e+00  0.000000e+00  1.000000e+00
    outer loop
      vertex -8.333215e+00  2.197288e+01  1.000000e+01
      vertex -4.698463e+01  1.710101e+01  1.000000e+01
      vertex -1.334952e+01  1.934012e+01  1.000000e+01
    endloop
  endfacet
  facet normal  0.000000e+00  0.000000e+00  1.000000e+00
    outer loop
      vertex -1.759000e+01  1.558338e+01  1.000000e+01
      vertex -4.698463e+01  1.710101e+01  1.000000e+01
      vertex -2.080822e+01  1.092099e+01  1.000000e+01
    endloop
  endfacet
  facet normal  0.000000e+00  0.000000e+00  1.000000e+00
    outer loop
      vertex -2.080822e+01  1.092099e+01  1.000000e+01
      vertex -4.698463e+01  1.710101e+01  1.000000e+01
      vertex -4.924039e+01  8.682409e+00  1.000000e+01
    endloop
  endfacet
  facet normal  -0.000000e+00  0.000000e+00  1.000000e+00
    outer loop
      vertex -2.080822e+01  1.092099e+01  1.000000e+01
      vertex -4.924039e+01  8.682409e+00  1.000000e+01
      vertex -2.281713e+01  5.623918e+00  1.000000e+01
    endloop
  endfacet
  facet normal  0.000000e+00  0.000000e+00  1.000000e+00
    outer loop
      vertex -2.281713e+01  5.623918e+00  1.000000e+01
      vertex -4.924039e+01  8.682409e+00  1.000000e+01
      vertex -5.000000e+01  6.123234e-15  1.000000e+01
    endloop
  endfacet
  facet normal  -0.000000e+00  0.000000e+00  9.999999e-01
    outer loop
      vertex -2.281713e+01  5.623918e+00  1.000000e+01
      vertex -5.000000e+01  6.123234e-15  1.000000e+01
      vertex -2.350000e+01 -7.558177e-15  1.000000e+01
    endloop
  endfacet
  facet normal  0.000000e+00  0.000000e+00  9.999999e-01
    outer loop
      vertex -2.350000e+01 -7.558177e-15  1.000000e+01
      vertex -5.000000e+01  6.123234e-15  1.000000e+01
      vertex -2.281713e+01 -5.623918e+00  1.000000e+01
    endloop
  endfacet
  facet normal  0.000000e+00  0.000000e+00  1.000000e+00
    outer loop
      vertex -2.281713e+01 -5.623918e+00  1.000000e+01
      vertex -5.000000e+01  6.123234e-15  1.000000e+01
      vertex -4.924039e+01 -8.682409e+00  1.000000e+01
    endloop
  endfacet
  facet normal  -0.000000e+00  0.000000e+00  1.000000e+00
    outer loop
      vertex -2.281713e+01 -5.623918e+00  1.000000e+01
      vertex -4.924039e+01 -8.682409e+00  1.000000e+01
      vertex -2.080822e+01 -1.092099e+01  1.000000e+01
    endloop
  endfacet
  facet normal  0.000000e+00  0.000000e+00  1.000000e+00
    outer loop
      vertex -4.698463e+01 -1.710101e+01  1.000000e+01
      vertex -1.759000e+01 -1.558338e+01  1.000000e+01
      vertex -4.924039e+01 -8.682409e+00  1.000000e+01
    endloop
  endfacet
  facet normal  0.000000e+00  0.000000e+00  1.000000e+00
    outer loop
      vertex -4.924039e+01 -8.682409e+00  1.000000e+01
      vertex -1.759000e+01 -1.558338e+01  1.000000e+01
      vertex -2.080822e+01 -1.092099e+01  1.000000e+01
    endloop
  endfacet
  facet normal  -0.000000e+00  0.000000e+00  1.000000e+00
    outer loop
      vertex  4.698463e+01  1.710101e+01  1.000000e+01
      vertex  1.759000e+01  1.558338e+01  1.000000e+01
      vertex  4.924039e+01  8.682409e+00  1.000000e+01
    endloop
  endfacet
  facet normal  0.000000e+00  0.000000e+00  1.000000e+00
    outer loop
      vertex  4.924039e+01  8.682409e+00  1.000000e+01
      vertex  1.759000e+01  1.558338e+01  1.000000e+01
      vertex  2.080822e+01  1.092099e+01  1.000000e+01
    endloop
  endfacet
  facet normal  0.000000e+00  0.000000e+00  1.000000e+00
    outer loop
      vertex  4.924039e+01  8.682409e+00  1.000000e+01
      vertex  2.080822e+01  1.092099e+01  1.000000e+01
      vertex  5.000000e+01  0.000000e+00  1.000000e+01
    endloop
  endfacet
  facet normal  0.000000e+00  0.000000e+00  1.000000e+00
    outer loop
      vertex  5.000000e+01  0.000000e+00  1.000000e+01
      vertex  2.080822e+01  1.092099e+01  1.000000e+01
      vertex  2.281713e+01  5.623918e+00  1.000000e+01
    endloop
  endfacet
  facet normal  0.000000e+00  0.000000e+00  9.999999e-01
    outer loop
      vertex  5.000000e+01  0.000000e+00  1.000000e+01
      vertex  2.281713e+01  5.623918e+00  1.000000e+01
      vertex  2.350000e+01  0.000000e+00  1.000000e+01
    endloop
  endfacet
  facet normal  -0.000000e+00  0.000000e+00  1.000000e+00
    outer loop
      vertex  5.000000e+01  0.000000e+00  1.000000e+01
      vertex  2.350000e+01  0.000000e+00  1.000000e+01
      vertex  4.924039e+01 -8.682409e+00  1.000000e+01
    endloop
  endfacet
  facet normal  0.000000e+00  0.000000e+00  1.000000e+00
    outer loop
      vertex  4.924039e+01 -8.682409e+00  1.000000e+01
      vertex  2.350000e+01  0.000000e+00  1.000000e+01
      vertex  2.281713e+01 -5.623918e+00  1.000000e+01
    endloop
  endfacet
  facet normal  0.000000e+00  0.000000e+00  1.000000e+00
    outer loop
      vertex  4.924039e+01 -8.682409e+00  1.000000e+01
      vertex  2.281713e+01 -5.623918e+00  1.000000e+01
      vertex  2.080822e+01 -1.092099e+01  1.000000e+01
    endloop
  endfacet
  facet normal  0.000000e+00  0.000000e+00  1.000000e+00
    outer loop
      vertex  2.080822e+01 -1.092099e+01  1.000000e+01
      vertex  1.759000e+01 -1.558338e+01  1.000000e+01
      vertex  4.924039e+01 -8.682409e+00  1.000000e+01
    endloop
  endfacet
  facet normal  0.000000e+00  0.000000e+00  1.000000e+00
    outer loop
      vertex  4.924039e+01 -8.682409e+00  1.000000e+01
      vertex  1.759000e+01 -1.558338e+01  1.000000e+01
      vertex  4.698463e+01 -1.710101e+01  1.000000e+01
    endloop
  endfacet
  facet normal  0.000000e+00  0.000000e+00 -1.000000e+00
    outer loop
      vertex  3.061617e-15  5.000000e+01  0.000000e+00
      vertex  8.682409e+00  4.924039e+01  0.000000e+00
      vertex -8.682409e+00  4.924039e+01  0.000000e+00
    endloop
  endfacet
  facet normal  0.000000e+00  0.000000e+00 -1.000000e+00
    outer loop
      vertex -9.184851e-15 -5.000000e+01  0.000000e+00
      vertex -8.682409e+00 -4.924039e+01  0.000000e+00
      vertex  8.682409e+00 -4.924039e+01  0.000000e+00
    endloop
  endfacet
  facet normal  0.000000e+00  0.000000e+00 -1.000000e+00
    outer loop
      vertex  8.682409e+00 -4.924039e+01  0.000000e+00
      vertex -8.682409e+00 -4.924039e+01  0.000000e+00
      vertex -1.710101e+01 -4.698463e+01  0.000000e+00
    endloop
  endfacet
  facet normal  0.000000e+00  0.000000e+00 -1.000000e+00
    outer loop
      vertex  8.682409e+00 -4.924039e+01  0.000000e+00
      vertex -1.710101e+01 -4.698463e+01  0.000000e+00
      vertex  1.710101e+01 -4.698463e+01  0.000000e+00
    endloop
  endfacet
  facet normal  0.000000e+00  0.000000e+00 -1.000000e+00
    outer loop
      vertex  1.710101e+01 -4.698463e+01  0.000000e+00
      vertex -1.710101e+01 -4.698463e+01  0.000000e+00
      vertex -2.500000e+01 -4.330127e+01  0.000000e+00
    endloop
  endfacet
  facet normal  0.000000e+00  0.000000e+00 -9.999999e-01
    outer loop
      vertex  1.710101e+01 -4.698463e+01  0.000000e+00
      vertex -2.500000e+01 -4.330127e+01  0.000000e+00
      vertex  2.500000e+01 -4.330127e+01  0.000000e+00
    endloop
  endfacet
  facet normal  0.000000e+00  0.000000e+00 -9.999999e-01
    outer loop
      vertex  2.500000e+01 -4.330127e+01  0.000000e+00
      vertex -2.500000e+01 -4.330127e+01  0.000000e+00
      vertex -3.213938e+01 -3.830222e+01  0.000000e+00
    endloop
  endfacet
  facet normal  0.000000e+00  0.000000e+00 -1.000000e+00
    outer loop
      vertex  2.500000e+01 -4.330127e+01  0.000000e+00
      vertex -3.213938e+01 -3.830222e+01  0.000000e+00
      vertex  3.213938e+01 -3.830222e+01  0.000000e+00
    endloop
  endfacet
  facet normal  0.000000e+00  0.000000e+00 -1.000000e+00
    outer loop
      vertex  3.213938e+01 -3.830222e+01  0.000000e+00
      vertex -3.213938e+01 -3.830222e+01  0.000000e+00
      vertex -3.830222e+01 -3.213938e+01  0.000000e+00
    endloop
  endfacet
  facet normal  0.000000e+00  0.000000e+00 -1.000000e+00
    outer loop
      vertex  3.213938e+01 -3.830222e+01  0.000000e+00
      vertex -3.830222e+01 -3.213938e+01  0.000000e+00
      vertex  3.830222e+01 -3.213938e+01  0.000000e+00
    endloop
  endfacet
  facet normal  0.000000e+00  0.000000e+00 -1.000000e+00
    outer loop
      vertex  3.830222e+01 -3.213938e+01  0.000000e+00
      vertex -3.830222e+01 -3.213938e+01  0.000000e+00
      vertex -4.330127e+01 -2.500000e+01  0.000000e+00
    endloop
  endfacet
  facet normal  0.000000e+00  0.000000e+00 -1.000000e+00
    outer loop
      vertex  3.830222e+01 -3.213938e+01  0.000000e+00
      vertex -4.330127e+01 -2.500000e+01  0.000000e+00
      vertex  4.330127e+01 -2.500000e+01  0.000000e+00
    endloop
  endfacet
  facet normal  0.000000e+00  0.000000e+00 -1.000000e+00
    outer loop
      vertex  4.330127e+01 -2.500000e+01  0.000000e+00
      vertex -4.330127e+01 -2.500000e+01  0.000000e+00
      vertex -4.698463e+01 -1.710101e+01  0.000000e+00
    endloop
  endfacet
  facet normal  0.000000e+00  0.000000e+00 -1.000000e+00
    outer loop
      vertex  4.330127e+01 -2.500000e+01  0.000000e+00
      vertex -4.698463e+01 -1.710101e+01  0.000000e+00
      vertex  4.698463e+01 -1.710101e+01  0.000000e+00
    endloop
  endfacet
  facet normal  0.000000e+00  0.000000e+00 -1.000000e+00
    outer loop
      vertex  4.698463e+01 -1.710101e+01  0.000000e+00
      vertex -4.698463e+01 -1.710101e+01  0.000000e+00
      vertex -4.924039e+01 -8.682409e+00  0.000000e+00
    endloop
  endfacet
  facet normal  0.000000e+00  0.000000e+00 -1.000000e+00
    outer loop
      vertex  4.698463e+01 -1.710101e+01  0.000000e+00
      vertex -4.924039e+01 -8.682409e+00  0.000000e+00
      vertex  4.924039e+01 -8.682409e+00  0.000000e+00
    endloop
  endfacet
  facet normal  0.000000e+00  0.000000e+00 -1.000000e+00
    outer loop
      vertex  4.924039e+01 -8.682409e+00  0.000000e+00
      vertex -4.924039e+01 -8.682409e+00  0.000000e+00
      vertex -5.000000e+01  6.123234e-15  0.000000e+00
    endloop
  endfacet
  facet normal  0.000000e+00  0.000000e+00 -1.000000e+00
    outer loop
      vertex  4.924039e+01 -8.682409e+00  0.000000e+00
      vertex -5.000000e+01  6.123234e-15  0.000000e+00
      vertex  5.000000e+01  0.000000e+00  0.000000e+00
    endloop
  endfacet
  facet normal  0.000000e+00  0.000000e+00 -1.000000e+00
    outer loop
      vertex  5.000000e+01  0.000000e+00  0.000000e+00
      vertex -5.000000e+01  6.123234e-15  0.000000e+00
      vertex -4.924039e+01  8.682409e+00  0.000000e+00
    endloop
  endfacet
  facet normal  0.000000e+00  0.000000e+00 -1.000000e+00
    outer loop
      vertex  5.000000e+01  0.000000e+00  0.000000e+00
      vertex -4.924039e+01  8.682409e+00  0.000000e+00
      vertex  4.924039e+01  8.682409e+00  0.000000e+00
    endloop
  endfacet
  facet normal  0.000000e+00  0.000000e+00 -1.000000e+00
    outer loop
      vertex  4.924039e+01  8.682409e+00  0.000000e+00
      vertex -4.924039e+01  8.682409e+00  0.000000e+00
      vertex -4.698463e+01  1.710101e+01  0.000000e+00
    endloop
  endfacet
  facet normal  0.000000e+00  0.000000e+00 -1.000000e+00
    outer loop
      vertex  4.924039e+01  8.682409e+00  0.000000e+00
      vertex -4.698463e+01  1.710101e+01  0.000000e+00
      vertex  4.698463e+01  1.710101e+01  0.000000e+00
    endloop
  endfacet
  facet normal  0.000000e+00  0.000000e+00 -1.000000e+00
    outer loop
      vertex  4.698463e+01  1.710101e+01  0.000000e+00
      vertex -4.698463e+01  1.710101e+01  0.000000e+00
      vertex -4.330127e+01  2.500000e+01  0.000000e+00
    endloop
  endfacet
  facet normal  0.000000e+00  0.000000e+00 -1.000000e+00
    outer loop
      vertex  4.698463e+01  1.710101e+01  0.000000e+00
      vertex -4.330127e+01  2.500000e+01  0.000000e+00
      vertex  4.330127e+01  2.500000e+01  0.000000e+00
    endloop
  endfacet
  facet normal  0.000000e+00  0.000000e+00 -1.000000e+00
    outer loop
      vertex  4.330127e+01  2.500000e+01  0.000000e+00
      vertex -4.330127e+01  2.500000e+01  0.000000e+00
      vertex -3.830222e+01  3.213938e+01  0.000000e+00
    endloop
  endfacet
  facet normal  0.000000e+00  0.000000e+00 -1.000000e+00
    outer loop
      vertex  4.330127e+01  2.500000e+01  0.000000e+00
      vertex -3.830222e+01  3.213938e+01  0.000000e+00
      vertex  3.830222e+01  3.213938e+01  0.000000e+00
    endloop
  endfacet
  facet normal  0.000000e+00  0.000000e+00 -1.000000e+00
    outer loop
      vertex  3.830222e+01  3.213938e+01  0.000000e+00
      vertex -3.830222e+01  3.213938e+01  0.000000e+00
      vertex -3.213938e+01  3.830222e+01  0.000000e+00
    endloop
  endfacet
  facet normal  0.000000e+00  0.000000e+00 -1.000000e+00
    outer loop
      vertex  3.830222e+01  3.213938e+01  0.000000e+00
      vertex -3.213938e+01  3.830222e+01  0.000000e+00
      vertex  3.213938e+01  3.830222e+01  0.000000e+00
    endloop
  endfacet
  facet normal  0.000000e+00  0.000000e+00 -1.000000e+00
    outer loop
      vertex  3.213938e+01  3.830222e+01  0.000000e+00
      vertex -3.213938e+01  3.830222e+01  0.000000e+00
      vertex -2.500000e+01  4.330127e+01  0.000000e+00
    endloop
  endfacet
  facet normal  0.000000e+00  0.000000e+00 -9.999999e-01
    outer loop
      vertex  3.213938e+01  3.830222e+01  0.000000e+00
      vertex -2.500000e+01  4.330127e+01  0.000000e+00
      vertex  2.500000e+01  4.330127e+01  0.000000e+00
    endloop
  endfacet
  facet normal  0.000000e+00  0.000000e+00 -9.999999e-01
    outer loop
      vertex  2.500000e+01  4.330127e+01  0.000000e+00
      vertex -2.500000e+01  4.330127e+01  0.000000e+00
      vertex -1.710101e+01  4.698463e+01  0.000000e+00
    endloop
  endfacet
  facet normal  0.000000e+00  0.000000e+00 -1.000000e+00
    outer loop
      vertex  2.500000e+01  4.330127e+01  0.000000e+00
      vertex -1.710101e+01  4.698463e+01  0.000000e+00
      vertex  1.710101e+01  4.698463e+01  0.000000e+00
    endloop
  endfacet
  facet normal  0.000000e+00  0.000000e+00 -1.000000e+00
    outer loop
      vertex  1.710101e+01  4.698463e+01  0.000000e+00
      vertex -1.710101e+01  4.698463e+01  0.000000e+00
      vertex -8.682409e+00  4.924039e+01  0.000000e+00
    endloop
  endfacet
  facet normal  0.000000e+00  0.000000e+00 -1.000000e+00
    outer loop
      vertex  1.710101e+01  4.698463e+01  0.000000e+00
      vertex -8.682409e+00  4.924039e+01  0.000000e+00
      vertex  8.682409e+00  4.924039e+01  0.000000e+00
    endloop
  endfacet
  facet normal  9.961947e-01 -8.715581e-02  0.000000e+00
    outer loop
      vertex  5.000000e+01  0.000000e+00  0.000000e+00
      vertex  5.000000e+01  0.000000e+00  1.000000e+01
      vertex  4.924039e+01 -8.682409e+00  0.000000e+00
    endloop
  endfacet
  facet normal  9.961947e-01 -8.715581e-02  0.000000e+00
    outer loop
      vertex  4.924039e+01 -8.682409e+00  0.000000e+00
      vertex  5.000000e+01  0.000000e+00  1.000000e+01
      vertex  4.924039e+01 -8.682409e+00  1.000000e+01
    endloop
  endfacet
  facet normal  9.659258e-01 -2.588190e-01  0.000000e+00
    outer loop
      vertex  4.924039e+01 -8.682409e+00  0.000000e+00
      vertex  4.924039e+01 -8.682409e+00  1.000000e+01
      vertex  4.698463e+01 -1.710101e+01  0.000000e+00
    endloop
  endfacet
  facet normal  9.659258e-01 -2.588190e-01  0.000000e+00
    outer loop
      vertex  4.698463e+01 -1.710101e+01  0.000000e+00
      vertex  4.924039e+01 -8.682409e+00  1.000000e+01
      vertex  4.698463e+01 -1.710101e+01  1.000000e+01
    endloop
  endfacet
  facet normal  9.063078e-01 -4.226183e-01  0.000000e+00
    outer loop
      vertex  4.698463e+01 -1.710101e+01  0.000000e+00
      vertex  4.698463e+01 -1.710101e+01  1.000000e+01
      vertex  4.330127e+01 -2.500000e+01  0.000000e+00
    endloop
  endfacet
  facet normal  9.063078e-01 -4.226183e-01  0.000000e+00
    outer loop
      vertex  4.330127e+01 -2.500000e+01  0.000000e+00
      vertex  4.698463e+01 -1.710101e+01  1.000000e+01
      vertex  4.330127e+01 -2.500000e+01  1.000000e+01
    endloop
  endfacet
  facet normal  8.191522e-01 -5.735763e-01  0.000000e+00
    outer loop
      vertex  4.330127e+01 -2.500000e+01  0.000000e+00
      vertex  4.330127e+01 -2.500000e+01  1.000000e+01
      vertex  3.830222e+01 -3.213938e+01  0.000000e+00
    endloop
  endfacet
  facet normal  8.191522e-01 -5.735763e-01  0.000000e+00
    outer loop
      vertex  3.830222e+01 -3.213938e+01  0.000000e+00
      vertex  4.330127e+01 -2.500000e+01  1.000000e+01
      vertex  3.830222e+01 -3.213938e+01  1.000000e+01
    endloop
  endfacet
  facet normal  7.071068e-01 -7.071068e-01  0.000000e+00
    outer loop
      vertex  3.830222e+01 -3.213938e+01  0.000000e+00
      vertex  3.830222e+01 -3.213938e+01  1.000000e+01
      vertex  3.213938e+01 -3.830222e+01  0.000000e+00
    endloop
  endfacet
  facet normal  7.071068e-01 -7.071068e-01  0.000000e+00
    outer loop
      vertex  3.213938e+01 -3.830222e+01  0.000000e+00
      vertex  3.830222e+01 -3.213938e+01  1.000000e+01
      vertex  3.213938e+01 -3.830222e+01  1.000000e+01
    endloop
  endfacet
  facet normal  5.735763e-01 -8.191522e-01  0.000000e+00
    outer loop
      vertex  3.213938e+01 -3.830222e+01  0.000000e+00
      vertex  3.213938e+01 -3.830222e+01  1.000000e+01
      vertex  2.500000e+01 -4.330127e+01  0.000000e+00
    endloop
  endfacet
  facet normal  5.735763e-01 -8.191522e-01  0.000000e+00
    outer loop
      vertex  2.500000e+01 -4.330127e+01  0.000000e+00
      vertex  3.213938e+01 -3.830222e+01  1.000000e+01
      vertex  2.500000e+01 -4.330127e+01  1.000000e+01
    endloop
  endfacet
  facet normal  4.226183e-01 -9.063078e-01  0.000000e+00
    outer loop
      vertex  2.500000e+01 -4.330127e+01  0.000000e+00
      vertex  2.500000e+01 -4.330127e+01  1.000000e+01
      vertex  1.710101e+01 -4.698463e+01  0.000000e+00
    endloop
  endfacet
  facet normal  4.226183e-01 -9.063078e-01  0.000000e+00
    outer loop
      vertex  1.710101e+01 -4.698463e+01  0.000000e+00
      vertex  2.500000e+01 -4.330127e+01  1.000000e+01
      vertex  1.710101e+01 -4.698463e+01  1.000000e+01
    endloop
  endfacet
  facet normal  2.588190e-01 -9.659258e-01  0.000000e+00
    outer loop
      vertex  1.710101e+01 -4.698463e+01  0.000000e+00
      vertex  1.710101e+01 -4.698463e+01  1.000000e+01
      vertex  8.682409e+00 -4.924039e+01  0.000000e+00
    endloop
  endfacet
  facet normal  2.588190e-01 -9.659258e-01  0.000000e+00
    outer loop
      vertex  8.682409e+00 -4.924039e+01  0.000000e+00
      vertex  1.710101e+01 -4.698463e+01  1.000000e+01
      vertex  8.682409e+00 -4.924039e+01  1.000000e+01
    endloop
  endfacet
  facet normal  8.715581e-02 -9.961947e-01  0.000000e+00
    outer loop
      vertex  8.682409e+00 -4.924039e+01  0.000000e+00
      vertex  8.682409e+00 -4.924039e+01  1.000000e+01
      vertex -9.184851e-15 -5.000000e+01  0.000000e+00
    endloop
  endfacet
  facet normal  8.715581e-02 -9.961947e-01  0.000000e+00
    outer loop
      vertex -9.184851e-15 -5.000000e+01  0.000000e+00
      vertex  8.682409e+00 -4.924039e+01  1.000000e+01
      vertex -9.184851e-15 -5.000000e+01  1.000000e+01
    endloop
  endfacet
  facet normal -8.715581e-02 -9.961947e-01  -0.000000e+00
    outer loop
      vertex -9.184851e-15 -5.000000e+01  0.000000e+00
      vertex -9.184851e-15 -5.000000e+01  1.000000e+01
      vertex -8.682409e+00 -4.924039e+01  0.000000e+00
    endloop
  endfacet
  facet normal -8.715581e-02 -9.961947e-01  0.000000e+00
    outer loop
      vertex -8.682409e+00 -4.924039e+01  0.000000e+00
      vertex -9.184851e-15 -5.000000e+01  1.000000e+01
      vertex -8.682409e+00 -4.924039e+01  1.000000e+01
    endloop
  endfacet
  facet normal -2.588190e-01 -9.659258e-01  -0.000000e+00
    outer loop
      vertex -8.682409e+00 -4.924039e+01  0.000000e+00
      vertex -8.682409e+00 -4.924039e+01  1.000000e+01
      vertex -1.710101e+01 -4.698463e+01  0.000000e+00
    endloop
  endfacet
  facet normal -2.588190e-01 -9.659258e-01  0.000000e+00
    outer loop
      vertex -1.710101e+01 -4.698463e+01  0.000000e+00
      vertex -8.682409e+00 -4.924039e+01  1.000000e+01
      vertex -1.710101e+01 -4.698463e+01  1.000000e+01
    endloop
  endfacet
  facet normal -4.226183e-01 -9.063078e-01  -0.000000e+00
    outer loop
      vertex -1.710101e+01 -4.698463e+01  0.000000e+00
      vertex -1.710101e+01 -4.698463e+01  1.000000e+01
      vertex -2.500000e+01 -4.330127e+01  0.000000e+00
    endloop
  endfacet
  facet normal -4.226183e-01 -9.063078e-01  0.000000e+00
    outer loop
      vertex -2.500000e+01 -4.330127e+01  0.000000e+00
      vertex -1.710101e+01 -4.698463e+01  1.000000e+01
      vertex -2.500000e+01 -4.330127e+01  1.000000e+01
    endloop
  endfacet
  facet normal -5.735763e-01 -8.191522e-01  -0.000000e+00
    outer loop
      vertex -2.500000e+01 -4.330127e+01  0.000000e+00
      vertex -2.500000e+01 -4.330127e+01  1.000000e+01
      vertex -3.213938e+01 -3.830222e+01  0.000000e+00
    endloop
  endfacet
  facet normal -5.735763e-01 -8.191522e-01  0.000000e+00
    outer loop
      vertex -3.213938e+01 -3.830222e+01  0.000000e+00
      vertex -2.500000e+01 -4.330127e+01  1.000000e+01
      vertex -3.213938e+01 -3.830222e+01  1.000000e+01
    endloop
  endfacet
  facet normal -7.071068e-01 -7.071068e-01  -0.000000e+00
    outer loop
      vertex -3.213938e+01 -3.830222e+01  0.000000e+00
      vertex -3.213938e+01 -3.830222e+01  1.000000e+01
      vertex -3.830222e+01 -3.213938e+01  0.000000e+00
    endloop
  endfacet
  facet normal -7.071068e-01 -7.071068e-01  0.000000e+00
    outer loop
      vertex -3.830222e+01 -3.213938e+01  0.000000e+00
      vertex -3.213938e+01 -3.830222e+01  1.000000e+01
      vertex -3.830222e+01 -3.213938e+01  1.000000e+01
    endloop
  endfacet
  facet normal -8.191522e-01 -5.735763e-01  -0.000000e+00
    outer loop
      vertex -3.830222e+01 -3.213938e+01  0.000000e+00
      vertex -3.830222e+01 -3.213938e+01  1.000000e+01
      vertex -4.330127e+01 -2.500000e+01  0.000000e+00
    endloop
  endfacet
  facet normal -8.191522e-01 -5.735763e-01  0.000000e+00
    outer loop
      vertex -4.330127e+01 -2.500000e+01  0.000000e+00
      vertex -3.830222e+01 -3.213938e+01  1.000000e+01
      vertex -4.330127e+01 -2.500000e+01  1.000000e+01
    endloop
  endfacet
  facet normal -9.063078e-01 -4.226183e-01  -0.000000e+00
    outer loop
      vertex -4.330127e+01 -2.500000e+01  0.000000e+00
      vertex -4.330127e+01 -2.500000e+01  1.000000e+01
      vertex -4.698463e+01 -1.710101e+01  0.000000e+00
    endloop
  endfacet
  facet normal -9.063078e-01 -4.226183e-01  0.000000e+00
    outer loop
      vertex -4.698463e+01 -1.710101e+01  0.000000e+00
      vertex -4.330127e+01 -2.500000e+01  1.000000e+01
      vertex -4.698463e+01 -1.710101e+01  1.000000e+01
    endloop
  endfacet
  facet normal -9.659258e-01 -2.588190e-01  -0.000000e+00
    outer loop
      vertex -4.698463e+01 -1.710101e+01  0.000000e+00
      vertex -4.698463e+01 -1.710101e+01  1.000000e+01
      vertex -4.924039e+01 -8.682409e+00  0.000000e+00
    endloop
  endfacet
  facet normal -9.659258e-01 -2.588190e-01  0.000000e+00
    outer loop
      vertex -4.924039e+01 -8.682409e+00  0.000000e+00
      vertex -4.698463e+01 -1.710101e+01  1.000000e+01
      vertex -4.924039e+01 -8.682409e+00  1.000000e+01
    endloop
  endfacet
  facet normal -9.961947e-01 -8.715581e-02  -0.000000e+00
    outer loop
      vertex -4.924039e+01 -8.682409e+00  0.000000e+00
      vertex -4.924039e+01 -8.682409e+00  1.000000e+01
      vertex -5.000000e+01  6.123234e-15  0.000000e+00
    endloop
  endfacet
  facet normal -9.961947e-01 -8.715581e-02  0.000000e+00
    outer loop
      vertex -5.000000e+01  6.123234e-15  0.000000e+00
      vertex -4.924039e+01 -8.682409e+00  1.000000e+01
      vertex -5.000000e+01  6.123234e-15  1.000000e+01
    endloop
  endfacet
  facet normal -9.961947e-01  8.715581e-02  0.000000e+00
    outer loop
      vertex -5.000000e+01  6.123234e-15  0.000000e+00
      vertex -5.000000e+01  6.123234e-15  1.000000e+01
      vertex -4.924039e+01  8.682409e+00  0.000000e+00
    endloop
  endfacet
  facet normal -9.961947e-01  8.715581e-02  0.000000e+00
    outer loop
      vertex -4.924039e+01  8.682409e+00  0.000000e+00
      vertex -5.000000e+01  6.123234e-15  1.000000e+01
      vertex -4.924039e+01  8.682409e+00  1.000000e+01
    endloop
  endfacet
  facet normal -9.659258e-01  2.588190e-01  0.000000e+00
    outer loop
      vertex -4.924039e+01  8.682409e+00  0.000000e+00
      vertex -4.924039e+01  8.682409e+00  1.000000e+01
      vertex -4.698463e+01  1.710101e+01  0.000000e+00
    endloop
  endfacet
  facet normal -9.659258e-01  2.588190e-01  0.000000e+00
    outer loop
      vertex -4.698463e+01  1.710101e+01  0.000000e+00
      vertex -4.924039e+01  8.682409e+00  1.000000e+01
      vertex -4.698463e+01  1.710101e+01  1.000000e+01
    endloop
  endfacet
  facet normal -9.063078e-01  4.226183e-01  0.000000e+00
    outer loop
      vertex -4.698463e+01  1.710101e+01  0.000000e+00
      vertex -4.698463e+01  1.710101e+01  1.000000e+01
      vertex -4.330127e+01  2.500000e+01  0.000000e+00
    endloop
  endfacet
  facet normal -9.063078e-01  4.226183e-01  0.000000e+00
    outer loop
      vertex -4.330127e+01  2.500000e+01  0.000000e+00
      vertex -4.698463e+01  1.710101e+01  1.000000e+01
      vertex -4.330127e+01  2.500000e+01  1.000000e+01
    endloop
  endfacet
  facet normal -8.191522e-01  5.735763e-01  0.000000e+00
    outer loop
      vertex -4.330127e+01  2.500000e+01  0.000000e+00
      vertex -4.330127e+01  2.500000e+01  1.000000e+01
      vertex -3.830222e+01  3.213938e+01  0.000000e+00
    endloop
  endfacet
  facet normal -8.191522e-01  5.735763e-01  0.000000e+00
    outer loop
      vertex -3.830222e+01  3.213938e+01  0.000000e+00
      vertex -4.330127e+01  2.500000e+01  1.000000e+01
      vertex -3.830222e+01  3.213938e+01  1.000000e+01
    endloop
  endfacet
  facet normal -7.071068e-01  7.071068e-01  0.000000e+00
    outer loop
      vertex -3.830222e+01  3.213938e+01  0.000000e+00
      vertex -3.830222e+01  3.213938e+01  1.000000e+01
      vertex -3.213938e+01  3.830222e+01  0.000000e+00
    endloop
  endfacet
  facet normal -7.071068e-01  7.071068e-01  0.000000e+00
    outer loop
      vertex -3.213938e+01  3.830222e+01  0.000000e+00
      vertex -3.830222e+01  3.213938e+01  1.000000e+01
      vertex -3.213938e+01  3.830222e+01  1.000000e+01
    endloop
  endfacet
  facet normal -5.735763e-01  8.191522e-01  0.000000e+00
    outer loop
      vertex -3.213938e+01  3.830222e+01  0.000000e+00
      vertex -3.213938e+01  3.830222e+01  1.000000e+01
      vertex -2.500000e+01  4.330127e+01  0.000000e+00
    endloop
  endfacet
  facet normal -5.735763e-01  8.191522e-01  0.000000e+00
    outer loop
      vertex -2.500000e+01  4.330127e+01  0.000000e+00
      vertex -3.213938e+01  3.830222e+01  1.000000e+01
      vertex -2.500000e+01  4.330127e+01  1.000000e+01
    endloop
  endfacet
  facet normal -4.226183e-01  9.063078e-01  0.000000e+00
    outer loop
      vertex -2.500000e+01  4.330127e+01  0.000000e+00
      vertex -2.500000e+01  4.330127e+01  1.000000e+01
      vertex -1.710101e+01  4.698463e+01  0.000000e+00
    endloop
  endfacet
  facet normal -4.226183e-01  9.063078e-01  0.000000e+00
    outer loop
      vertex -1.710101e+01  4.698463e+01  0.000000e+00
      vertex -2.500000e+01  4.330127e+01  1.000000e+01
      vertex -1.710101e+01  4.698463e+01  1.000000e+01
    endloop
  endfacet
  facet normal -2.588190e-01  9.659258e-01  0.000000e+00
    outer loop
      vertex -1.710101e+01  4.698463e+01  0.000000e+00
      vertex -1.710101e+01  4.698463e+01  1.000000e+01
      vertex -8.682409e+00  4.924039e+01  0.000000e+00
    endloop
  endfacet
  facet normal -2.588190e-01  9.659258e-01  0.000000e+00
    outer loop
      vertex -8.682409e+00  4.924039e+01  0.000000e+00
      vertex -1.710101e+01  4.698463e+01  1.000000e+01
      vertex -8.682409e+00  4.924039e+01  1.000000e+01
    endloop
  endfacet
  facet normal -8.715581e-02  9.961947e-01  0.000000e+00
    outer loop
      vertex -8.682409e+00  4.924039e+01  0.000000e+00
      vertex -8.682409e+00  4.924039e+01  1.000000e+01
      vertex  3.061617e-15  5.000000e+01  0.000000e+00
    endloop
  endfacet
  facet normal -8.715581e-02  9.961947e-01  0.000000e+00
    outer loop
      vertex  3.061617e-15  5.000000e+01  0.000000e+00
      vertex -8.682409e+00  4.924039e+01  1.000000e+01
      vertex  3.061617e-15  5.000000e+01  1.000000e+01
    endloop
  endfacet
  facet normal  8.715581e-02  9.961947e-01  0.000000e+00
    outer loop
      vertex  3.061617e-15  5.000000e+01  0.000000e+00
      vertex  3.061617e-15  5.000000e+01  1.000000e+01
      vertex  8.682409e+00  4.924039e+01  0.000000e+00
    endloop
  endfacet
  facet normal  8.715581e-02  9.961947e-01  -0.000000e+00
    outer loop
      vertex  8.682409e+00  4.924039e+01  0.000000e+00
      vertex  3.061617e-15  5.000000e+01  1.000000e+01
      vertex  8.682409e+00  4.924039e+01  1.000000e+01
    endloop
  endfacet
  facet normal  2.588190e-01  9.659258e-01  0.000000e+00
    outer loop
      vertex  8.682409e+00  4.924039e+01  0.000000e+00
      vertex  8.682409e+00  4.924039e+01  1.000000e+01
      vertex  1.710101e+01  4.698463e+01  0.000000e+00
    endloop
  endfacet
  facet normal  2.588190e-01  9.659258e-01  -0.000000e+00
    outer loop
      vertex  1.710101e+01  4.698463e+01  0.000000e+00
      vertex  8.682409e+00  4.924039e+01  1.000000e+01
      vertex  1.710101e+01  4.698463e+01  1.000000e+01
    endloop
  endfacet
  facet normal  4.226183e-01  9.063078e-01  0.000000e+00
    outer loop
      vertex  1.710101e+01  4.698463e+01  0.000000e+00
      vertex  1.710101e+01  4.698463e+01  1.000000e+01
      vertex  2.500000e+01  4.330127e+01  0.000000e+00
    endloop
  endfacet
  facet normal  4.226183e-01  9.063078e-01  -0.000000e+00
    outer loop
      vertex  2.500000e+01  4.330127e+01  0.000000e+00
      vertex  1.710101e+01  4.698463e+01  1.000000e+01
      vertex  2.500000e+01  4.330127e+01  1.000000e+01
    endloop
  endfacet
  facet normal  5.735763e-01  8.191522e-01  0.000000e+00
    outer loop
      vertex  2.500000e+01  4.330127e+01  0.000000e+00
      vertex  2.500000e+01  4.330127e+01  1.000000e+01
      vertex  3.213938e+01  3.830222e+01  0.000000e+00
    endloop
  endfacet
  facet normal  5.735763e-01  8.191522e-01  -0.000000e+00
    outer loop
      vertex  3.213938e+01  3.830222e+01  0.000000e+00
      vertex  2.500000e+01  4.330127e+01  1.000000e+01
      vertex  3.213938e+01  3.830222e+01  1.000000e+01
    endloop
  endfacet
  facet normal  7.071068e-01  7.071068e-01  0.000000e+00
    outer loop
      vertex  3.213938e+01  3.830222e+01  0.000000e+00
      vertex  3.213938e+01  3.830222e+01  1.000000e+01
      vertex  3.830222e+01  3.213938e+01  0.000000e+00
    endloop
  endfacet
  facet normal  7.071068e-01  7.071068e-01  -0.000000e+00
    outer loop
      vertex  3.830222e+01  3.213938e+01  0.000000e+00
      vertex  3.213938e+01  3.830222e+01  1.000000e+01
      vertex  3.830222e+01  3.213938e+01  1.000000e+01
    endloop
  endfacet
  facet normal  8.191522e-01  5.735763e-01  0.000000e+00
    outer loop
      vertex  3.830222e+01  3.213938e+01  0.000000e+00
      vertex  3.830222e+01  3.213938e+01  1.000000e+01
      vertex  4.330127e+01  2.500000e+01  0.000000e+00
    endloop
  endfacet
  facet normal  8.191522e-01  5.735763e-01  -0.000000e+00
    outer loop
      vertex  4.330127e+01  2.500000e+01  0.000000e+00
      vertex  3.830222e+01  3.213938e+01  1.000000e+01
      vertex  4.330127e+01  2.500000e+01  1.000000e+01
    endloop
  endfacet
  facet normal  9.063078e-01  4.226183e-01  0.000000e+00
    outer loop
      vertex  4.330127e+01  2.500000e+01  0.000000e+00
      vertex  4.330127e+01  2.500000e+01  1.000000e+01
      vertex  4.698463e+01  1.710101e+01  0.000000e+00
    endloop
  endfacet
  facet normal  9.063078e-01  4.226183e-01  -0.000000e+00
    outer loop
      vertex  4.698463e+01  1.710101e+01  0.000000e+00
      vertex  4.330127e+01  2.500000e+01  1.000000e+01
      vertex  4.698463e+01  1.710101e+01  1.000000e+01
    endloop
  endfacet
  facet normal  9.659258e-01  2.588190e-01  0.000000e+00
    outer loop
      vertex  4.698463e+01  1.710101e+01  0.000000e+00
      vertex  4.698463e+01  1.710101e+01  1.000000e+01
      vertex  4.924039e+01  8.682409e+00  0.000000e+00
    endloop
  endfacet
  facet normal  9.659258e-01  2.588190e-01  -0.000000e+00
    outer loop
      vertex  4.924039e+01  8.682409e+00  0.000000e+00
      vertex  4.698463e+01  1.710101e+01  1.000000e+01
      vertex  4.924039e+01  8.682409e+00  1.000000e+01
    endloop
  endfacet
  facet normal  9.961947e-01  8.715581e-02  0.000000e+00
    outer loop
      vertex  4.924039e+01  8.682409e+00  0.000000e+00
      vertex  4.924039e+01  8.682409e+00  1.000000e+01
      vertex  5.000000e+01  0.000000e+00  0.000000e+00
    endloop
  endfacet
  facet normal  9.961947e-01  8.715581e-02  -0.000000e+00
    outer loop
      vertex  5.000000e+01  0.000000e+00  0.000000e+00
      vertex  4.924039e+01  8.682409e+00  1.000000e+01
      vertex  5.000000e+01  0.000000e+00  1.000000e+01
    endloop
  endfacet
endsolid CATIA STL
